<svg width="238" height="210" viewBox="0 0 238 210" fill="none" xmlns="http://www.w3.org/2000/svg">
<rect x="0.5" y="0.5" width="237" height="209" fill="#F1F8FB" stroke="#008AD1"/>
<g clip-path="url(#clip0_21_9102)">
<path d="M57.6898 148.047V149.414H52.9184V148.047H57.6898ZM59.0023 148.047V158H57.2865V148.047H59.0023ZM52.5766 148.047H54.2787L54.0395 152.989C54.0076 153.714 53.946 154.352 53.8549 154.903C53.7637 155.455 53.6407 155.926 53.4857 156.318C53.3308 156.71 53.1348 157.032 52.8979 157.282C52.6609 157.528 52.376 157.711 52.0434 157.829C51.7152 157.943 51.3301 158 50.8881 158H50.4506V156.64L50.7172 156.619C50.9587 156.601 51.1661 156.544 51.3393 156.448C51.517 156.348 51.6674 156.202 51.7904 156.011C51.9135 155.815 52.016 155.562 52.098 155.252C52.1801 154.942 52.2439 154.564 52.2895 154.117C52.3396 153.671 52.376 153.149 52.3988 152.552L52.5766 148.047ZM63.4553 155.204L67.8713 148.047H69.5871V158H67.8713V150.836L63.4553 158H61.7463V148.047H63.4553V155.204ZM72.1328 148.047H73.8486V151.13C73.8486 151.599 73.9193 151.968 74.0605 152.237C74.2018 152.502 74.416 152.688 74.7031 152.798C74.9948 152.907 75.3571 152.962 75.79 152.962C75.9997 152.962 76.2207 152.953 76.4531 152.935C76.6855 152.916 76.918 152.891 77.1504 152.859C77.3874 152.823 77.6152 152.782 77.834 152.736C78.0527 152.686 78.2533 152.632 78.4355 152.572V153.933C78.2578 153.987 78.0618 154.04 77.8477 154.09C77.638 154.14 77.4193 154.183 77.1914 154.22C76.9635 154.252 76.7311 154.277 76.4941 154.295C76.2572 154.313 76.0225 154.322 75.79 154.322C75.0381 154.322 74.3887 154.215 73.8418 154.001C73.2949 153.782 72.8734 153.438 72.5771 152.969C72.2809 152.499 72.1328 151.886 72.1328 151.13V148.047ZM78.0459 148.047H79.7617V158H78.0459V148.047ZM89.0955 152.203V153.563H83.8113V152.203H89.0955ZM84.2352 148.047V158H82.5193V148.047H84.2352ZM90.4148 148.047V158H88.7059V148.047H90.4148ZM94.3756 151.868H96.8844C97.6409 151.868 98.2857 151.996 98.8189 152.251C99.3567 152.502 99.7669 152.855 100.049 153.311C100.337 153.766 100.48 154.297 100.48 154.903C100.48 155.359 100.398 155.776 100.234 156.154C100.074 156.533 99.8398 156.861 99.5299 157.139C99.22 157.412 98.8417 157.624 98.3951 157.774C97.9531 157.925 97.4495 158 96.8844 158H93.193V148.047H94.9088V156.64H96.8844C97.3173 156.64 97.6728 156.56 97.9508 156.4C98.2288 156.236 98.4339 156.022 98.566 155.758C98.7027 155.493 98.7711 155.204 98.7711 154.89C98.7711 154.584 98.7027 154.306 98.566 154.056C98.4339 153.805 98.2288 153.604 97.9508 153.454C97.6728 153.304 97.3173 153.229 96.8844 153.229H94.3756V151.868ZM103.221 148.047V158H101.505V148.047H103.221ZM107.695 155.204L112.111 148.047H113.827V158H112.111V150.836L107.695 158H105.986V148.047H107.695V155.204ZM110.928 145.497H112.152C112.152 145.875 112.061 146.21 111.878 146.502C111.701 146.789 111.445 147.015 111.113 147.179C110.785 147.343 110.393 147.425 109.937 147.425C109.249 147.425 108.704 147.247 108.303 146.892C107.907 146.532 107.708 146.067 107.708 145.497H108.932C108.932 145.752 109.007 145.978 109.158 146.174C109.313 146.365 109.572 146.461 109.937 146.461C110.297 146.461 110.552 146.365 110.703 146.174C110.853 145.978 110.928 145.752 110.928 145.497ZM122.514 148.047V158H120.805V148.047H122.514ZM128.502 148.047L124.455 153.721H122.028L121.796 152.23H123.505L126.403 148.047H128.502ZM126.752 158L123.532 153.461L124.64 152.142L128.81 158H126.752ZM134.37 149.373L131.396 158H129.598L133.345 148.047H134.493L134.37 149.373ZM136.858 158L133.878 149.373L133.748 148.047H134.903L138.663 158H136.858ZM136.715 154.309V155.669H131.301V154.309H136.715ZM146.787 148.047V149.414H142.159V158H140.45V148.047H146.787ZM141.639 151.868H144.141C144.898 151.868 145.545 151.996 146.083 152.251C146.62 152.502 147.031 152.855 147.313 153.311C147.596 153.766 147.737 154.297 147.737 154.903C147.737 155.359 147.657 155.776 147.498 156.154C147.338 156.533 147.103 156.861 146.794 157.139C146.484 157.412 146.105 157.624 145.659 157.774C145.217 157.925 144.711 158 144.141 158H140.45V148.047H142.172V156.64H144.141C144.574 156.64 144.93 156.56 145.208 156.4C145.486 156.236 145.691 156.022 145.823 155.758C145.96 155.493 146.028 155.204 146.028 154.89C146.028 154.584 145.96 154.306 145.823 154.056C145.691 153.805 145.486 153.604 145.208 153.454C144.93 153.304 144.574 153.229 144.141 153.229H141.639V151.868ZM151.677 155.204L156.093 148.047H157.809V158H156.093V150.836L151.677 158H149.968V148.047H151.677V155.204ZM167.143 152.203V153.563H161.859V152.203H167.143ZM162.282 148.047V158H160.567V148.047H162.282ZM168.462 148.047V158H166.753V148.047H168.462ZM177.721 156.64V158H172.437V156.64H177.721ZM172.922 148.047V158H171.206V148.047H172.922ZM177.03 152.203V153.543H172.437V152.203H177.03ZM177.687 148.047V149.414H172.437V148.047H177.687ZM184.054 148.047V158H182.351V148.047H184.054ZM187.178 148.047V149.414H179.255V148.047H187.178ZM71.0049 165.373L68.0312 174H66.2334L69.9795 164.047H71.1279L71.0049 165.373ZM73.4932 174L70.5127 165.373L70.3828 164.047H71.5381L75.2979 174H73.4932ZM73.3496 170.309V171.669H67.9355V170.309H73.3496ZM83.4217 164.047V165.414H78.7938V174H77.0848V164.047H83.4217ZM78.2742 167.868H80.7762C81.5327 167.868 82.1798 167.996 82.7176 168.251C83.2553 168.502 83.6655 168.855 83.948 169.311C84.2306 169.766 84.3719 170.297 84.3719 170.903C84.3719 171.359 84.2921 171.776 84.1326 172.154C83.9731 172.533 83.7384 172.861 83.4285 173.139C83.1186 173.412 82.7404 173.624 82.2938 173.774C81.8517 173.925 81.3458 174 80.7762 174H77.0848V164.047H78.8074V172.64H80.7762C81.2091 172.64 81.5646 172.56 81.8426 172.4C82.1206 172.236 82.3257 172.022 82.4578 171.758C82.5945 171.493 82.6629 171.204 82.6629 170.89C82.6629 170.584 82.5945 170.306 82.4578 170.056C82.3257 169.805 82.1206 169.604 81.8426 169.454C81.5646 169.304 81.2091 169.229 80.7762 169.229H78.2742V167.868ZM88.3121 171.204L92.7281 164.047H94.4439V174H92.7281V166.836L88.3121 174H86.6031V164.047H88.3121V171.204ZM101.091 164.047V174H99.3891V164.047H101.091ZM104.215 164.047V165.414H96.2924V164.047H104.215ZM109.331 170.534L111.861 164.047H113.754L110.295 172.195C110.186 172.446 110.06 172.69 109.919 172.927C109.782 173.159 109.616 173.367 109.42 173.549C109.224 173.731 108.987 173.877 108.709 173.986C108.431 174.091 108.094 174.144 107.697 174.144C107.593 174.144 107.465 174.139 107.315 174.13C107.169 174.121 107.062 174.112 106.993 174.103L107.007 172.756C107.062 172.765 107.153 172.772 107.28 172.776C107.413 172.781 107.508 172.783 107.568 172.783C107.832 172.783 108.042 172.74 108.196 172.653C108.351 172.562 108.474 172.441 108.566 172.291C108.661 172.136 108.746 171.967 108.819 171.785L109.331 170.534ZM107.431 164.047L109.933 169.557L110.425 171.348L109.092 171.396L105.558 164.047H107.431ZM119.54 170.288H116.949V168.928H119.54C119.991 168.928 120.356 168.855 120.634 168.709C120.912 168.563 121.115 168.363 121.242 168.107C121.374 167.848 121.44 167.551 121.44 167.219C121.44 166.904 121.374 166.61 121.242 166.337C121.115 166.059 120.912 165.836 120.634 165.667C120.356 165.498 119.991 165.414 119.54 165.414H117.476V174H115.76V164.047H119.54C120.31 164.047 120.964 164.184 121.502 164.457C122.044 164.726 122.457 165.1 122.739 165.578C123.022 166.052 123.163 166.594 123.163 167.205C123.163 167.848 123.022 168.399 122.739 168.859C122.457 169.32 122.044 169.673 121.502 169.919C120.964 170.165 120.31 170.288 119.54 170.288ZM127.096 171.204L131.512 164.047H133.228V174H131.512V166.836L127.096 174H125.387V164.047H127.096V171.204ZM142.501 172.64V174H137.216V172.64H142.501ZM137.702 164.047V174H135.986V164.047H137.702ZM141.81 168.203V169.543H137.216V168.203H141.81ZM142.466 164.047V165.414H137.216V164.047H142.466ZM151.178 168.203V169.563H145.894V168.203H151.178ZM146.318 164.047V174H144.602V164.047H146.318ZM152.497 164.047V174H150.788V164.047H152.497ZM159.131 164.047V174H157.429V164.047H159.131ZM162.255 164.047V165.414H154.332V164.047H162.255ZM167.487 165.373L164.514 174H162.716L166.462 164.047H167.61L167.487 165.373ZM169.976 174L166.995 165.373L166.865 164.047H168.021L171.78 174H169.976ZM169.832 170.309V171.669H164.418V170.309H169.832Z" fill="#008AD1"/>
<path d="M118.006 101.837C109.876 101.837 94.7422 93.3297 94.7422 77.0511C94.7422 76.764 94.8493 76.4887 95.0399 76.2858C95.2305 76.0828 95.489 75.9688 95.7585 75.9688C96.0281 75.9688 96.2866 76.0828 96.4772 76.2858C96.6678 76.4887 96.7749 76.764 96.7749 77.0511C96.7749 91.901 110.597 99.6723 118.006 99.6723C125.415 99.6723 139.238 91.901 139.238 77.0511C139.238 76.764 139.345 76.4887 139.535 76.2858C139.726 76.0828 139.985 75.9688 140.254 75.9688C140.524 75.9688 140.782 76.0828 140.973 76.2858C141.163 76.4887 141.27 76.764 141.27 77.0511C141.26 93.3297 126.137 101.837 118.006 101.837Z" fill="#008AD1"/>
<path d="M141.826 82.7907C141.378 82.7722 140.939 82.6561 140.535 82.4494C140.131 82.2428 139.772 81.95 139.478 81.5893C139.303 81.3711 139.216 81.0878 139.237 80.8016C139.258 80.5153 139.385 80.2497 139.59 80.0631C139.795 79.8766 140.061 79.7843 140.33 79.8066C140.599 79.8289 140.848 79.964 141.023 80.1822C141.235 80.4247 141.518 80.5815 141.826 80.626C142.497 80.626 143.503 78.9267 143.503 76.2966C143.558 75.5647 143.476 74.8286 143.264 74.1303C143.051 73.432 142.711 72.7852 142.263 72.2269C142.145 72.1437 142.045 72.0352 141.969 71.9083C141.892 71.7815 141.842 71.639 141.82 71.4901C141.798 71.3412 141.806 71.1891 141.843 71.0436C141.88 70.8981 141.944 70.7624 142.033 70.6451C142.122 70.5278 142.233 70.4316 142.359 70.3625C142.484 70.2935 142.622 70.2531 142.764 70.2441C142.905 70.2351 143.046 70.2576 143.179 70.3101C143.311 70.3627 143.432 70.4441 143.534 70.5493C144.774 71.6316 145.566 73.7963 145.566 76.2966C145.536 80.009 143.94 82.7907 141.826 82.7907Z" fill="#008AD1"/>
<path d="M94.1628 82.7923C92.0488 82.7923 90.4531 80.0215 90.4531 76.2982C90.4531 73.8088 91.2255 71.6116 92.4858 70.5509C92.5882 70.4529 92.7083 70.378 92.8387 70.3309C92.9691 70.2837 93.1072 70.2653 93.2445 70.2767C93.3818 70.2881 93.5155 70.3292 93.6375 70.3973C93.7594 70.4654 93.8671 70.5593 93.954 70.6731C94.0409 70.7869 94.1051 70.9183 94.1428 71.0594C94.1805 71.2004 94.191 71.3482 94.1734 71.4937C94.1559 71.6391 94.1107 71.7793 94.0408 71.9056C93.9708 72.032 93.8775 72.1418 93.7664 72.2286C93.3115 72.7835 92.9641 73.4287 92.7444 74.1272C92.5246 74.8256 92.4367 75.5635 92.4858 76.2982C92.4858 78.8742 93.5022 80.6276 94.1628 80.6276C94.4775 80.5816 94.7662 80.4164 94.9759 80.1622C95.0582 80.0405 95.1634 79.9383 95.2848 79.8622C95.4062 79.7861 95.5411 79.7376 95.681 79.72C95.8209 79.7023 95.9627 79.7159 96.0974 79.7597C96.2322 79.8035 96.3569 79.8767 96.4636 79.9746C96.5704 80.0725 96.6569 80.1929 96.7176 80.3283C96.7783 80.4637 96.812 80.611 96.8164 80.7609C96.8208 80.9109 96.7959 81.0602 96.7432 81.1993C96.6906 81.3385 96.6113 81.4645 96.5105 81.5693C96.2195 81.9345 95.8607 82.2316 95.4567 82.4421C95.0527 82.6526 94.6121 82.7718 94.1628 82.7923Z" fill="#008AD1"/>
<path d="M95.7471 78.1266C95.6011 78.128 95.4565 78.0958 95.3232 78.0323C95.19 77.9688 95.0711 77.8754 94.9747 77.7586C94.68 77.3906 87.8603 68.7426 92.6778 52.0527C92.7635 51.7867 92.9431 51.5666 93.1785 51.4391C93.4139 51.3116 93.6867 51.2868 93.9391 51.3698C94.1915 51.4528 94.4036 51.6372 94.5305 51.8839C94.6574 52.1305 94.6891 52.4202 94.619 52.6913C91.57 63.2551 93.4908 70.3445 95.0763 73.8189C95.7979 67.9525 97.5766 56.9125 100.89 55.0292C103.217 53.6979 110.555 54.737 116.298 55.841C117.421 56.0466 118.569 56.0466 119.692 55.841C125.435 54.7586 132.773 53.6763 135.1 55.0292C138.413 56.9125 140.182 67.92 140.913 73.7972C142.489 70.2904 144.43 63.1902 141.371 52.6913C141.327 52.5542 141.309 52.4091 141.318 52.2645C141.328 52.1199 141.365 51.9788 141.426 51.8496C141.488 51.7204 141.573 51.6057 141.677 51.5123C141.782 51.419 141.902 51.3488 142.032 51.306C142.162 51.2632 142.299 51.2487 142.434 51.2633C142.57 51.2779 142.701 51.3213 142.821 51.3909C142.94 51.4606 143.045 51.5551 143.129 51.6687C143.214 51.7824 143.276 51.913 143.312 52.0527C148.17 68.721 141.31 77.3798 141.015 77.7586C140.884 77.9172 140.712 78.0315 140.521 78.0873C140.329 78.1431 140.126 78.1379 139.938 78.0725C139.75 78.0084 139.583 77.8872 139.458 77.7238C139.334 77.5604 139.257 77.3619 139.236 77.1525C138.515 69.576 136.452 58.2546 134.155 56.9342C133.138 56.328 128.839 56.2847 120.058 58.0165C118.714 58.2811 117.336 58.2811 115.993 58.0165C108.756 56.6311 103.227 56.2306 101.896 56.9342C99.5889 58.2546 97.5257 69.5544 96.8143 77.1525C96.794 77.3619 96.7169 77.5604 96.5924 77.7238C96.4678 77.8872 96.3012 78.0084 96.113 78.0725C95.9967 78.1206 95.8714 78.1391 95.7471 78.1266Z" fill="#008AD1"/>
<path d="M153.973 125.002H82.0163C81.7468 125.002 81.4883 124.888 81.2977 124.685C81.1071 124.482 81 124.207 81 123.92C81 118.753 82.9274 113.797 86.3582 110.144C89.7891 106.49 94.4423 104.438 99.2942 104.438H111.399C111.668 104.438 111.927 104.552 112.118 104.755C112.308 104.957 112.415 105.233 112.415 105.52C112.415 105.807 112.308 106.082 112.118 106.285C111.927 106.488 111.668 106.602 111.399 106.602H99.284C95.1417 106.594 91.1523 108.269 88.1303 111.286C85.1083 114.303 83.2814 118.435 83.0225 122.837H152.916C152.658 118.444 150.838 114.32 147.827 111.304C144.816 108.289 140.839 106.607 136.706 106.602H124.581C124.311 106.602 124.053 106.488 123.862 106.285C123.672 106.082 123.564 105.807 123.564 105.52C123.564 105.233 123.672 104.957 123.862 104.755C124.053 104.552 124.311 104.438 124.581 104.438H136.706C139.108 104.437 141.487 104.941 143.707 105.921C145.926 106.9 147.943 108.335 149.642 110.144C151.341 111.953 152.688 114.101 153.607 116.464C154.527 118.828 155 121.361 155 123.92C155 124.063 154.973 124.205 154.922 124.337C154.87 124.469 154.794 124.588 154.699 124.689C154.603 124.79 154.49 124.869 154.366 124.923C154.241 124.977 154.108 125.004 153.973 125.002Z" fill="#008AD1"/>
<path d="M117.998 109.475C115.265 109.484 112.639 108.344 110.69 106.303C110.591 106.203 110.512 106.082 110.458 105.948C110.404 105.814 110.376 105.67 110.375 105.524V99.2464C110.375 98.9594 110.482 98.6841 110.673 98.4811C110.863 98.2781 111.122 98.1641 111.391 98.1641C111.661 98.1641 111.919 98.2781 112.11 98.4811C112.301 98.6841 112.408 98.9594 112.408 99.2464V105.059C113.948 106.516 115.937 107.321 117.998 107.321C120.058 107.321 122.047 106.516 123.587 105.059V99.2572C123.587 98.9702 123.695 98.6949 123.885 98.4919C124.076 98.2889 124.334 98.1749 124.604 98.1749C124.873 98.1749 125.132 98.2889 125.322 98.4919C125.513 98.6949 125.62 98.9702 125.62 99.2572V105.524C125.621 105.667 125.595 105.808 125.545 105.94C125.494 106.071 125.42 106.191 125.325 106.293C123.373 108.342 120.739 109.486 117.998 109.475Z" fill="#008AD1"/>
<mask id="path-9-inside-1_21_9102" fill="white">
<path d="M141.341 77.5844C143.92 73.1386 145.333 68.0375 145.432 62.8125C145.531 57.5876 144.312 52.43 141.903 47.8771C139.494 43.3242 135.982 39.5426 131.734 36.9262C127.486 34.3098 122.657 32.9544 117.75 33.0012C112.843 33.048 108.038 34.4953 103.834 37.1922C99.631 39.8892 96.1837 43.7372 93.8516 48.3354C91.5194 52.9335 90.3878 58.1135 90.5746 63.3357C90.7613 68.5579 92.2597 73.6313 94.9134 78.0272L96.9682 76.6203C94.5507 72.6158 93.1857 67.994 93.0156 63.2367C92.8454 58.4794 93.8763 53.7605 96.0009 49.5717C98.1254 45.3829 101.266 41.8774 105.095 39.4205C108.924 36.9636 113.302 35.6451 117.772 35.6025C122.242 35.5599 126.642 36.7946 130.511 39.1781C134.381 41.5616 137.58 45.0066 139.775 49.1542C141.969 53.3018 143.079 58.0003 142.989 62.7601C142.899 67.5199 141.612 72.1669 139.262 76.217L141.341 77.5844Z"/>
</mask>
<path d="M141.341 77.5844C143.92 73.1386 145.333 68.0375 145.432 62.8125C145.531 57.5876 144.312 52.43 141.903 47.8771C139.494 43.3242 135.982 39.5426 131.734 36.9262C127.486 34.3098 122.657 32.9544 117.75 33.0012C112.843 33.048 108.038 34.4953 103.834 37.1922C99.631 39.8892 96.1837 43.7372 93.8516 48.3354C91.5194 52.9335 90.3878 58.1135 90.5746 63.3357C90.7613 68.5579 92.2597 73.6313 94.9134 78.0272L96.9682 76.6203C94.5507 72.6158 93.1857 67.994 93.0156 63.2367C92.8454 58.4794 93.8763 53.7605 96.0009 49.5717C98.1254 45.3829 101.266 41.8774 105.095 39.4205C108.924 36.9636 113.302 35.6451 117.772 35.6025C122.242 35.5599 126.642 36.7946 130.511 39.1781C134.381 41.5616 137.58 45.0066 139.775 49.1542C141.969 53.3018 143.079 58.0003 142.989 62.7601C142.899 67.5199 141.612 72.1669 139.262 76.217L141.341 77.5844Z" fill="#F1F8FB" stroke="#008AD1" stroke-width="8" mask="url(#path-9-inside-1_21_9102)"/>
</g>
<defs>
<clipPath id="clip0_21_9102">
<rect width="138" height="144" fill="white" transform="translate(50 33)"/>
</clipPath>
</defs>
</svg>
