<svg width="238" height="210" viewBox="0 0 238 210" fill="none" xmlns="http://www.w3.org/2000/svg">
<rect x="0.5" y="0.5" width="237" height="209" fill="#F1F8FB" stroke="#008AD1"/>
<g clip-path="url(#clip0_21_9118)">
<path d="M57.6898 148.047V149.414H52.9184V148.047H57.6898ZM59.0023 148.047V158H57.2865V148.047H59.0023ZM52.5766 148.047H54.2787L54.0395 152.989C54.0076 153.714 53.946 154.352 53.8549 154.903C53.7637 155.455 53.6407 155.926 53.4857 156.318C53.3308 156.71 53.1348 157.032 52.8979 157.282C52.6609 157.528 52.376 157.711 52.0434 157.829C51.7152 157.943 51.3301 158 50.8881 158H50.4506V156.64L50.7172 156.619C50.9587 156.601 51.1661 156.544 51.3393 156.448C51.517 156.348 51.6674 156.202 51.7904 156.011C51.9135 155.815 52.016 155.562 52.098 155.252C52.1801 154.942 52.2439 154.564 52.2895 154.117C52.3396 153.671 52.376 153.149 52.3988 152.552L52.5766 148.047ZM63.4553 155.204L67.8713 148.047H69.5871V158H67.8713V150.836L63.4553 158H61.7463V148.047H63.4553V155.204ZM72.1328 148.047H73.8486V151.13C73.8486 151.599 73.9193 151.968 74.0605 152.237C74.2018 152.502 74.416 152.688 74.7031 152.798C74.9948 152.907 75.3571 152.962 75.79 152.962C75.9997 152.962 76.2207 152.953 76.4531 152.935C76.6855 152.916 76.918 152.891 77.1504 152.859C77.3874 152.823 77.6152 152.782 77.834 152.736C78.0527 152.686 78.2533 152.632 78.4355 152.572V153.933C78.2578 153.987 78.0618 154.04 77.8477 154.09C77.638 154.14 77.4193 154.183 77.1914 154.22C76.9635 154.252 76.7311 154.277 76.4941 154.295C76.2572 154.313 76.0225 154.322 75.79 154.322C75.0381 154.322 74.3887 154.215 73.8418 154.001C73.2949 153.782 72.8734 153.438 72.5771 152.969C72.2809 152.499 72.1328 151.886 72.1328 151.13V148.047ZM78.0459 148.047H79.7617V158H78.0459V148.047ZM89.0955 152.203V153.563H83.8113V152.203H89.0955ZM84.2352 148.047V158H82.5193V148.047H84.2352ZM90.4148 148.047V158H88.7059V148.047H90.4148ZM94.3756 151.868H96.8844C97.6409 151.868 98.2857 151.996 98.8189 152.251C99.3567 152.502 99.7669 152.855 100.049 153.311C100.337 153.766 100.48 154.297 100.48 154.903C100.48 155.359 100.398 155.776 100.234 156.154C100.074 156.533 99.8398 156.861 99.5299 157.139C99.22 157.412 98.8417 157.624 98.3951 157.774C97.9531 157.925 97.4495 158 96.8844 158H93.193V148.047H94.9088V156.64H96.8844C97.3173 156.64 97.6728 156.56 97.9508 156.4C98.2288 156.236 98.4339 156.022 98.566 155.758C98.7027 155.493 98.7711 155.204 98.7711 154.89C98.7711 154.584 98.7027 154.306 98.566 154.056C98.4339 153.805 98.2288 153.604 97.9508 153.454C97.6728 153.304 97.3173 153.229 96.8844 153.229H94.3756V151.868ZM103.221 148.047V158H101.505V148.047H103.221ZM107.695 155.204L112.111 148.047H113.827V158H112.111V150.836L107.695 158H105.986V148.047H107.695V155.204ZM110.928 145.497H112.152C112.152 145.875 112.061 146.21 111.878 146.502C111.701 146.789 111.445 147.015 111.113 147.179C110.785 147.343 110.393 147.425 109.937 147.425C109.249 147.425 108.704 147.247 108.303 146.892C107.907 146.532 107.708 146.067 107.708 145.497H108.932C108.932 145.752 109.007 145.978 109.158 146.174C109.313 146.365 109.572 146.461 109.937 146.461C110.297 146.461 110.552 146.365 110.703 146.174C110.853 145.978 110.928 145.752 110.928 145.497ZM122.514 148.047V158H120.805V148.047H122.514ZM128.502 148.047L124.455 153.721H122.028L121.796 152.23H123.505L126.403 148.047H128.502ZM126.752 158L123.532 153.461L124.64 152.142L128.81 158H126.752ZM134.37 149.373L131.396 158H129.598L133.345 148.047H134.493L134.37 149.373ZM136.858 158L133.878 149.373L133.748 148.047H134.903L138.663 158H136.858ZM136.715 154.309V155.669H131.301V154.309H136.715ZM146.787 148.047V149.414H142.159V158H140.45V148.047H146.787ZM141.639 151.868H144.141C144.898 151.868 145.545 151.996 146.083 152.251C146.62 152.502 147.031 152.855 147.313 153.311C147.596 153.766 147.737 154.297 147.737 154.903C147.737 155.359 147.657 155.776 147.498 156.154C147.338 156.533 147.103 156.861 146.794 157.139C146.484 157.412 146.105 157.624 145.659 157.774C145.217 157.925 144.711 158 144.141 158H140.45V148.047H142.172V156.64H144.141C144.574 156.64 144.93 156.56 145.208 156.4C145.486 156.236 145.691 156.022 145.823 155.758C145.96 155.493 146.028 155.204 146.028 154.89C146.028 154.584 145.96 154.306 145.823 154.056C145.691 153.805 145.486 153.604 145.208 153.454C144.93 153.304 144.574 153.229 144.141 153.229H141.639V151.868ZM151.677 155.204L156.093 148.047H157.809V158H156.093V150.836L151.677 158H149.968V148.047H151.677V155.204ZM167.143 152.203V153.563H161.859V152.203H167.143ZM162.282 148.047V158H160.567V148.047H162.282ZM168.462 148.047V158H166.753V148.047H168.462ZM177.721 156.64V158H172.437V156.64H177.721ZM172.922 148.047V158H171.206V148.047H172.922ZM177.03 152.203V153.543H172.437V152.203H177.03ZM177.687 148.047V149.414H172.437V148.047H177.687ZM184.054 148.047V158H182.351V148.047H184.054ZM187.178 148.047V149.414H179.255V148.047H187.178ZM64.5695 164.047V174H62.8605V165.414H58.4377V174H56.7287V164.047H64.5695ZM71.1143 170.288H68.5234V168.928H71.1143C71.5654 168.928 71.93 168.855 72.208 168.709C72.486 168.563 72.6888 168.363 72.8164 168.107C72.9486 167.848 73.0146 167.551 73.0146 167.219C73.0146 166.904 72.9486 166.61 72.8164 166.337C72.6888 166.059 72.486 165.836 72.208 165.667C71.93 165.498 71.5654 165.414 71.1143 165.414H69.0498V174H67.334V164.047H71.1143C71.8844 164.047 72.5384 164.184 73.0762 164.457C73.6185 164.726 74.0309 165.1 74.3135 165.578C74.596 166.052 74.7373 166.594 74.7373 167.205C74.7373 167.848 74.596 168.399 74.3135 168.859C74.0309 169.32 73.6185 169.673 73.0762 169.919C72.5384 170.165 71.8844 170.288 71.1143 170.288ZM83.49 172.64V174H78.2059V172.64H83.49ZM78.6912 164.047V174H76.9754V164.047H78.6912ZM82.7996 168.203V169.543H78.2059V168.203H82.7996ZM83.4559 164.047V165.414H78.2059V164.047H83.4559ZM93.4664 164.047V174H91.7574V165.414H87.3346V174H85.6256V164.047H93.4664ZM104.167 168.75V169.297C104.167 170.049 104.069 170.723 103.873 171.32C103.677 171.917 103.397 172.425 103.033 172.845C102.673 173.264 102.24 173.585 101.734 173.809C101.228 174.027 100.667 174.137 100.052 174.137C99.4415 174.137 98.8832 174.027 98.3773 173.809C97.876 173.585 97.4408 173.264 97.0717 172.845C96.7025 172.425 96.4154 171.917 96.2104 171.32C96.0098 170.723 95.9096 170.049 95.9096 169.297V168.75C95.9096 167.998 96.0098 167.326 96.2104 166.733C96.4109 166.136 96.6934 165.628 97.058 165.209C97.4271 164.785 97.8624 164.464 98.3637 164.245C98.8695 164.022 99.4278 163.91 100.038 163.91C100.654 163.91 101.214 164.022 101.72 164.245C102.226 164.464 102.661 164.785 103.026 165.209C103.39 165.628 103.671 166.136 103.867 166.733C104.067 167.326 104.167 167.998 104.167 168.75ZM102.452 169.297V168.736C102.452 168.18 102.397 167.69 102.287 167.267C102.183 166.838 102.025 166.48 101.816 166.193C101.611 165.902 101.358 165.683 101.057 165.537C100.756 165.387 100.417 165.312 100.038 165.312C99.6602 165.312 99.323 165.387 99.0268 165.537C98.7305 165.683 98.4776 165.902 98.268 166.193C98.0629 166.48 97.9057 166.838 97.7963 167.267C97.6869 167.69 97.6322 168.18 97.6322 168.736V169.297C97.6322 169.853 97.6869 170.345 97.7963 170.773C97.9057 171.202 98.0652 171.564 98.2748 171.86C98.489 172.152 98.7442 172.373 99.0404 172.523C99.3367 172.669 99.6739 172.742 100.052 172.742C100.435 172.742 100.774 172.669 101.071 172.523C101.367 172.373 101.618 172.152 101.823 171.86C102.028 171.564 102.183 171.202 102.287 170.773C102.397 170.345 102.452 169.853 102.452 169.297ZM114.212 172.64V174H106.877V172.64H114.212ZM107.301 172.64V176.447H105.66L105.599 172.64H107.301ZM115.538 172.64L115.436 176.44H113.822V172.64H115.538ZM113.009 164.047V165.414H108.415V164.047H113.009ZM114.321 164.047V174H112.612V164.047H114.321ZM108.073 164.047H109.789L109.55 168.08C109.514 168.718 109.447 169.292 109.352 169.803C109.256 170.313 109.14 170.771 109.003 171.177C108.871 171.578 108.721 171.933 108.552 172.243C108.383 172.549 108.203 172.813 108.012 173.036C107.821 173.259 107.625 173.451 107.424 173.61C107.228 173.765 107.034 173.895 106.843 174H105.927V172.64H106.371C106.494 172.526 106.631 172.362 106.781 172.147C106.932 171.929 107.078 171.644 107.219 171.293C107.365 170.938 107.492 170.498 107.602 169.974C107.711 169.45 107.786 168.818 107.827 168.08L108.073 164.047ZM121.522 165.373L118.549 174H116.751L120.497 164.047H121.646L121.522 165.373ZM124.011 174L121.03 165.373L120.9 164.047H122.056L125.815 174H124.011ZM123.867 170.309V171.669H118.453V170.309H123.867ZM131.362 169.502H128.826L128.812 168.251H131.027C131.401 168.251 131.718 168.196 131.977 168.087C132.242 167.973 132.442 167.811 132.579 167.602C132.716 167.387 132.784 167.13 132.784 166.829C132.784 166.496 132.72 166.225 132.593 166.016C132.465 165.806 132.269 165.653 132.005 165.558C131.745 165.462 131.412 165.414 131.007 165.414H129.346V174H127.63V164.047H131.007C131.554 164.047 132.041 164.099 132.47 164.204C132.902 164.309 133.269 164.473 133.57 164.696C133.875 164.915 134.106 165.193 134.261 165.53C134.42 165.868 134.5 166.269 134.5 166.733C134.5 167.144 134.402 167.52 134.206 167.861C134.01 168.199 133.721 168.474 133.338 168.688C132.955 168.903 132.479 169.03 131.909 169.071L131.362 169.502ZM131.287 174H128.286L129.058 172.64H131.287C131.674 172.64 131.998 172.576 132.258 172.448C132.517 172.316 132.711 172.136 132.839 171.908C132.971 171.676 133.037 171.405 133.037 171.095C133.037 170.771 132.98 170.491 132.866 170.254C132.752 170.012 132.572 169.828 132.326 169.7C132.08 169.568 131.759 169.502 131.362 169.502H129.434L129.448 168.251H131.957L132.346 168.723C132.893 168.741 133.342 168.862 133.693 169.085C134.049 169.308 134.313 169.598 134.486 169.953C134.659 170.309 134.746 170.691 134.746 171.102C134.746 171.735 134.607 172.266 134.329 172.694C134.055 173.123 133.661 173.449 133.146 173.672C132.631 173.891 132.012 174 131.287 174ZM141.051 165.373L138.078 174H136.28L140.026 164.047H141.174L141.051 165.373ZM143.54 174L140.559 165.373L140.429 164.047H141.585L145.344 174H143.54ZM143.396 170.309V171.669H137.982V170.309H143.396ZM150.392 164.047V174H148.69V164.047H150.392ZM153.516 164.047V165.414H145.593V164.047H153.516ZM162.043 172.64V174H156.759V172.64H162.043ZM157.244 164.047V174H155.529V164.047H157.244ZM161.353 168.203V169.543H156.759V168.203H161.353ZM162.009 164.047V165.414H156.759V164.047H162.009ZM170.673 164.047V165.414H165.901V164.047H170.673ZM171.985 164.047V174H170.27V164.047H171.985ZM165.56 164.047H167.262L167.022 168.989C166.991 169.714 166.929 170.352 166.838 170.903C166.747 171.455 166.624 171.926 166.469 172.318C166.314 172.71 166.118 173.032 165.881 173.282C165.644 173.528 165.359 173.711 165.026 173.829C164.698 173.943 164.313 174 163.871 174H163.434V172.64L163.7 172.619C163.942 172.601 164.149 172.544 164.322 172.448C164.5 172.348 164.65 172.202 164.773 172.011C164.896 171.815 164.999 171.562 165.081 171.252C165.163 170.942 165.227 170.564 165.272 170.117C165.323 169.671 165.359 169.149 165.382 168.552L165.56 164.047ZM180.137 170.268H177.395L176.719 169.987C175.967 169.75 175.39 169.39 174.989 168.907C174.588 168.424 174.387 167.816 174.387 167.082C174.387 166.426 174.533 165.872 174.825 165.421C175.117 164.97 175.531 164.628 176.069 164.396C176.611 164.163 177.252 164.047 177.99 164.047H181.333V174H179.61V165.414H177.99C177.352 165.414 176.878 165.569 176.568 165.879C176.258 166.189 176.103 166.617 176.103 167.164C176.103 167.538 176.172 167.859 176.308 168.128C176.45 168.392 176.657 168.597 176.93 168.743C177.208 168.884 177.553 168.955 177.963 168.955H180.137V170.268ZM178.045 169.502L175.734 174H173.888L176.226 169.502H178.045Z" fill="#008AD1"/>
<path d="M121.099 69.836C114.126 69.836 108.672 62.735 108.662 53.6837C108.662 53.0336 108.325 44.7824 112.882 41.4919C114.982 39.9817 117.786 39.7416 121.19 40.9218C124.585 39.7416 127.399 39.9217 129.55 41.4919C134.188 44.8524 133.78 53.3436 133.76 53.7037C133.76 62.5749 128.061 69.836 121.099 69.836ZM117.154 42.162C116.037 42.1315 114.941 42.4618 114.034 43.1021C110.273 45.8225 110.65 53.5236 110.65 53.6036V53.6537C110.65 61.6548 115.217 67.8357 121.048 67.8357C126.879 67.8357 131.721 61.4748 131.721 53.6537C131.721 53.5236 132.088 45.8125 128.337 43.0921C126.726 41.9319 124.483 41.8519 121.68 42.8721C121.569 42.9116 121.451 42.932 121.333 42.9321H121.099C120.977 42.9331 120.856 42.9128 120.742 42.8721C119.598 42.4295 118.383 42.189 117.154 42.162Z" fill="#008AD1"/>
<path d="M133.454 58.1474C132.905 58.1455 132.368 57.9818 131.915 57.6773C131.686 57.5327 131.526 57.305 131.469 57.0443C131.411 56.7836 131.462 56.5112 131.609 56.2871C131.756 56.0629 131.989 55.9054 132.254 55.8491C132.52 55.7929 132.798 55.8425 133.026 55.987C133.152 56.0733 133.301 56.1219 133.454 56.1271C134.117 56.1271 134.861 55.0569 134.861 53.6367C134.861 52.2165 134.117 51.1563 133.454 51.1563C133.348 51.1911 133.249 51.2417 133.159 51.3064C132.947 51.4364 132.694 51.4859 132.448 51.4453C132.202 51.4048 131.98 51.277 131.823 51.0863C131.668 50.8966 131.589 50.6579 131.6 50.4149C131.611 50.1719 131.712 49.9412 131.884 49.7661C133.173 48.3485 133.865 46.5042 133.821 44.6054C133.668 42.6051 132.404 40.6648 130.06 38.8945C129.901 38.7776 129.78 38.6177 129.713 38.4345C129.42 37.6839 128.942 37.0167 128.321 36.4928C127.7 35.969 126.956 35.6052 126.155 35.434C121.598 34.0938 114.34 35.9841 111.914 37.8544C105.502 42.9251 110.395 49.6561 110.609 49.9462C110.747 50.1333 110.814 50.3614 110.8 50.5918C110.786 50.8222 110.691 51.0406 110.531 51.2102C110.372 51.3797 110.157 51.4899 109.924 51.522C109.691 51.5541 109.454 51.5062 109.253 51.3864C109.071 51.2805 108.871 51.2093 108.662 51.1763C108.01 51.1763 107.265 52.2365 107.265 53.6567C107.265 55.0769 108.01 56.1471 108.662 56.1471C108.816 56.1419 108.964 56.0933 109.09 56.007C109.202 55.9343 109.328 55.884 109.46 55.8592C109.593 55.8344 109.729 55.8355 109.86 55.8625C109.992 55.8895 110.117 55.9417 110.228 56.0163C110.339 56.0909 110.434 56.1863 110.507 56.2971C110.654 56.5188 110.705 56.7884 110.65 57.047C110.594 57.3056 110.437 57.5322 110.212 57.6773C109.754 57.9803 109.214 58.1439 108.662 58.1474C106.735 58.1474 105.227 56.1471 105.227 53.6567C105.227 51.4864 106.348 49.7261 107.897 49.2761C106.521 46.4256 104.941 40.7948 110.65 36.2742C113.453 34.1239 121.333 31.9835 126.736 33.5238C127.797 33.7785 128.783 34.2728 129.615 34.9674C130.447 35.662 131.102 36.5375 131.528 37.5243C134.219 39.6147 135.666 41.955 135.86 44.5254C135.962 46.2518 135.536 47.9687 134.637 49.4561C135.374 49.8887 135.976 50.5125 136.375 51.259C136.774 52.0054 136.956 52.8455 136.9 53.6867C136.9 56.1771 135.361 58.1474 133.454 58.1474Z" fill="#008AD1"/>
<path d="M121.088 77.9914C120.981 77.9902 120.874 77.9734 120.772 77.9414C116.949 76.7312 113.85 70.7103 113.503 70.0202C113.389 69.7932 113.367 69.5323 113.442 69.2901L114.308 66.5297C114.388 66.2751 114.568 66.0619 114.808 65.9372C115.048 65.8125 115.328 65.7864 115.588 65.8646C115.847 65.9429 116.065 66.1191 116.192 66.3545C116.319 66.5899 116.346 66.8652 116.266 67.1198L115.511 69.4902C116.46 71.2604 118.804 74.9409 121.088 75.9211C123.372 74.9209 125.716 71.2604 126.654 69.4902L125.92 67.1698C125.841 66.9165 125.867 66.6425 125.993 66.4081C126.119 66.1737 126.335 65.998 126.593 65.9196C126.851 65.8415 127.131 65.8672 127.37 65.9909C127.608 66.1147 127.788 66.3265 127.867 66.5797L128.724 69.2901C128.764 69.4095 128.78 69.5358 128.77 69.6613C128.759 69.7868 128.723 69.9089 128.663 70.0202C128.326 70.7103 125.217 76.7312 121.394 77.9414C121.295 77.9733 121.192 77.9901 121.088 77.9914Z" fill="#008AD1"/>
<path d="M89.9614 90.661H89.8697C89.7356 90.6497 89.6051 90.6125 89.4858 90.5515C89.3664 90.4904 89.2606 90.4068 89.1744 90.3055C89.0881 90.2042 89.0232 90.0871 88.9833 89.961C88.9434 89.8349 88.9294 89.7023 88.942 89.5708C89.2372 86.3892 89.8205 83.2396 90.6852 80.1595C90.9602 79.1396 91.486 78.2015 92.2165 77.4273C92.9469 76.6531 93.8598 76.0665 94.875 75.7188C100.992 73.6385 113.867 68.6578 113.989 68.6078C114.242 68.511 114.524 68.5166 114.772 68.6236C115.021 68.7305 115.216 68.9299 115.314 69.1779C115.413 69.4259 115.407 69.7022 115.298 69.946C115.189 70.1899 114.986 70.3812 114.733 70.4781C114.611 70.4781 101.675 75.4788 95.5478 77.6091C94.847 77.8463 94.2169 78.2499 93.7136 78.7838C93.2102 79.3178 92.8493 79.9656 92.6629 80.6695C91.8251 83.6409 91.2621 86.6803 90.9808 89.7509C90.9579 90.0002 90.8404 90.2321 90.6516 90.4006C90.4629 90.5691 90.2166 90.662 89.9614 90.661Z" fill="#008AD1"/>
<path d="M138.683 125.002H103.309C103.075 125.008 102.846 124.935 102.66 124.795C102.474 124.654 102.343 124.456 102.29 124.232L101.27 120.071L100.251 124.232C100.197 124.456 100.066 124.654 99.8806 124.795C99.6949 124.935 99.4656 125.008 99.2314 125.002H88.8741C88.6439 125.01 88.4179 124.941 88.2328 124.806C88.0477 124.672 87.9144 124.48 87.8547 124.262L85.3469 115.001C85.2869 114.748 85.3293 114.483 85.465 114.26C85.6008 114.037 85.8193 113.875 86.0745 113.808C86.3297 113.74 86.6017 113.773 86.833 113.898C87.0643 114.024 87.2369 114.233 87.3144 114.481L89.659 123.002H98.5382L100.332 115.441C100.386 115.217 100.517 115.018 100.703 114.878C100.888 114.738 101.118 114.664 101.352 114.671C101.586 114.664 101.815 114.738 102.001 114.878C102.187 115.018 102.317 115.217 102.371 115.441L104.125 123.002H138.194L140.712 119.861C140.819 119.726 140.959 119.62 141.12 119.554C141.28 119.487 141.456 119.462 141.629 119.481C141.802 119.501 141.966 119.564 142.107 119.664C142.248 119.763 142.361 119.897 142.434 120.051L143.668 122.622H153.016C152.626 108.411 150.919 94.2637 147.919 80.3556C147.742 79.5785 147.357 78.862 146.803 78.28C146.249 77.698 145.547 77.2717 144.769 77.0451C138.78 75.2268 132.92 73.0251 127.225 70.4541C127.103 70.3976 126.995 70.3183 126.905 70.2206C126.815 70.123 126.746 70.0089 126.701 69.8849C126.656 69.7609 126.636 69.6295 126.643 69.498C126.65 69.3666 126.683 69.2378 126.74 69.1189C126.798 69.0001 126.879 68.8935 126.978 68.8053C127.078 68.7171 127.194 68.649 127.321 68.6049C127.447 68.5607 127.581 68.5415 127.715 68.5482C127.849 68.5549 127.98 68.5874 128.101 68.6438C133.702 71.1756 139.468 73.3407 145.36 75.1248C146.485 75.4545 147.5 76.0735 148.3 76.9176C149.099 77.7617 149.654 78.8002 149.907 79.9255C152.986 94.2972 154.692 108.919 155.004 123.602C155.007 123.734 154.984 123.866 154.935 123.99C154.886 124.114 154.812 124.226 154.718 124.322C154.623 124.418 154.509 124.494 154.382 124.545C154.256 124.597 154.121 124.623 153.984 124.622H143.026C142.832 124.623 142.642 124.57 142.477 124.469C142.313 124.368 142.181 124.224 142.098 124.052L141.293 122.372L139.447 124.622C139.356 124.736 139.24 124.829 139.108 124.895C138.976 124.96 138.831 124.997 138.683 125.002Z" fill="#008AD1"/>
<path d="M121.09 114.076C120.955 114.075 120.821 114.048 120.697 113.997C120.573 113.945 120.46 113.87 120.366 113.776C118.714 112.156 113.689 82.9013 111.599 70.3995C111.556 70.1342 111.622 69.8629 111.782 69.6454C111.943 69.4278 112.185 69.2817 112.455 69.2393C112.726 69.1968 113.002 69.2615 113.224 69.4191C113.446 69.5766 113.594 69.8142 113.638 70.0794C115.799 83.0813 119.346 102.914 121.12 109.965C122.894 102.964 126.431 83.1213 128.593 70.1894C128.637 69.9242 128.787 69.6872 129.01 69.5306C129.233 69.3739 129.51 69.3105 129.78 69.3543C130.051 69.3981 130.292 69.5454 130.452 69.7639C130.611 69.9824 130.676 70.2542 130.631 70.5195C128.593 82.9813 123.496 112.156 121.864 113.776C121.764 113.876 121.643 113.955 121.51 114.007C121.376 114.059 121.233 114.082 121.09 114.076Z" fill="#008AD1"/>
<path d="M124.718 98.2854C124.478 98.2897 124.245 98.2108 124.058 98.0626C123.872 97.9145 123.744 97.7065 123.699 97.4753L121.089 83.5133L118.408 97.5153C118.383 97.6467 118.332 97.7719 118.258 97.884C118.184 97.996 118.088 98.0927 117.976 98.1684C117.864 98.244 117.737 98.2973 117.604 98.3251C117.471 98.3529 117.334 98.3548 117.2 98.3305C117.066 98.3062 116.938 98.2562 116.824 98.1835C116.71 98.1108 116.611 98.0167 116.534 97.9067C116.457 97.7966 116.403 97.6727 116.374 97.5421C116.346 97.4115 116.344 97.2766 116.369 97.1453L119.121 82.8332L117.755 81.1029C117.625 80.9307 117.555 80.7221 117.555 80.5079C117.555 80.2936 117.625 80.085 117.755 79.9128L120.253 76.4123C120.348 76.2816 120.473 76.1753 120.619 76.1022C120.764 76.0291 120.926 75.9913 121.089 75.9922C121.252 75.9913 121.414 76.0291 121.559 76.1022C121.705 76.1753 121.83 76.2816 121.925 76.4123L124.423 79.9128C124.553 80.085 124.623 80.2936 124.623 80.5079C124.623 80.7221 124.553 80.9307 124.423 81.1029L122.975 82.7932L125.717 97.1053C125.765 97.3637 125.708 97.6302 125.557 97.8473C125.406 98.0643 125.175 98.2145 124.912 98.2654C124.849 98.2814 124.784 98.2882 124.718 98.2854ZM119.804 80.4228L120.987 81.9231L121.089 81.9931V81.9331L122.282 80.4328L121.089 78.6926L119.804 80.4228Z" fill="#008AD1"/>
<path d="M101.324 116.664H101.222C100.953 116.638 100.705 116.509 100.533 116.305C100.361 116.1 100.279 115.837 100.304 115.573C100.304 115.443 101.548 102.912 97.5413 93.0901C97.4916 92.968 97.467 92.8374 97.4688 92.706C97.4707 92.5745 97.4989 92.4446 97.5519 92.3239C97.605 92.2031 97.6817 92.0938 97.7779 92.0022C97.874 91.9105 97.9876 91.8384 98.1122 91.7899C98.2367 91.7412 98.3698 91.7171 98.5038 91.7188C98.6378 91.7206 98.7702 91.7483 98.8933 91.8003C99.0164 91.8524 99.1278 91.9277 99.2212 92.022C99.3146 92.1163 99.3881 92.2278 99.4375 92.35C103.638 102.632 102.394 115.243 102.333 115.773C102.305 116.017 102.187 116.243 102.001 116.407C101.815 116.571 101.574 116.663 101.324 116.664Z" fill="#008AD1"/>
<path d="M141.48 121.477C141.21 121.477 140.951 121.372 140.76 121.184C140.568 120.997 140.461 120.742 140.461 120.477C140.461 119.577 141.236 98.3237 142.5 91.4727C142.525 91.3414 142.576 91.2161 142.65 91.1041C142.724 90.992 142.82 90.8954 142.932 90.8197C143.044 90.744 143.17 90.6907 143.303 90.6629C143.437 90.6351 143.574 90.6333 143.708 90.6576C143.842 90.6819 143.97 90.7318 144.084 90.8045C144.198 90.8772 144.296 90.9713 144.374 91.0814C144.451 91.1914 144.505 91.3153 144.533 91.4459C144.562 91.5766 144.564 91.7114 144.539 91.8428C143.254 98.5037 142.5 120.287 142.5 120.507C142.492 120.767 142.381 121.014 142.191 121.195C142 121.376 141.746 121.477 141.48 121.477Z" fill="#008AD1"/>
<path d="M86.9706 115.763C86.5424 115.763 86.2672 115.763 86.2264 115.763C86.0107 115.742 85.8074 115.654 85.646 115.512C85.4847 115.37 85.3737 115.181 85.3293 114.973C85.3293 114.973 84.5137 111.293 82.5359 109.592C79.6916 107.152 81.3125 96.9405 83.2597 94.5201C83.4903 94.2071 83.7987 93.9573 84.1557 93.7945C84.5126 93.6316 84.9061 93.5612 85.2987 93.59C86.2193 93.7196 87.0714 94.1411 87.725 94.7901L87.2866 90.9896C87.2485 90.6386 87.2978 90.2838 87.4303 89.9557C87.5627 89.6275 87.7744 89.3358 88.0472 89.1056C88.3199 88.8754 88.6455 88.7136 88.9961 88.6341C89.3466 88.5546 89.7116 88.5598 90.0596 88.6493C90.6329 88.7126 91.1684 88.9612 91.5819 89.3559C91.9953 89.7506 92.2632 90.2691 92.3432 90.8296C92.5438 92.3251 92.8331 93.8078 93.2098 95.2702C93.6771 97.1573 94.0446 99.0668 94.3108 100.991C94.5364 102.881 94.4952 104.793 94.1885 106.672C93.9123 108.432 93.8303 110.216 93.9438 111.993C93.9627 112.198 93.9164 112.404 93.8113 112.583C92.0884 115.423 88.5304 115.763 86.9706 115.763ZM85.1254 95.5503C85.0744 95.5503 84.9928 95.5503 84.8603 95.7303C83.2088 97.7806 82.2199 106.622 83.8408 108.062C85.4186 109.642 86.5378 111.607 87.0828 113.753C88.2653 113.753 90.6407 113.473 91.8437 111.753C91.7518 109.921 91.8474 108.085 92.1292 106.272C92.4122 104.579 92.45 102.855 92.2413 101.151C92.0001 99.3111 91.6598 97.485 91.2218 95.6803C90.8179 94.1334 90.5114 92.5635 90.3043 90.9796C90.3043 90.8296 90.3043 90.7396 89.5805 90.5595C89.5492 90.5429 89.5141 90.5342 89.4785 90.5342C89.4429 90.5342 89.4079 90.5429 89.3766 90.5595C89.3528 90.5762 89.3345 90.5992 89.3236 90.6258C89.3128 90.6524 89.3099 90.6814 89.3154 90.7096L90.0698 97.8106C90.0821 98.0274 90.0221 98.2423 89.8989 98.4228C89.7756 98.6032 89.5959 98.7394 89.3868 98.8107C89.1688 98.883 88.9323 98.8809 88.7158 98.8046C88.4992 98.7284 88.3153 98.5825 88.194 98.3907C87.307 97.0005 85.8798 95.4702 85.1356 95.3902L85.1254 95.5503Z" fill="#008AD1"/>
<path d="M95.1482 116.423C94.9656 116.42 94.7868 116.372 94.6283 116.283C93.8689 115.841 93.2242 115.233 92.7448 114.506C92.2655 113.779 91.9645 112.953 91.8655 112.093C91.8508 111.961 91.8626 111.828 91.9002 111.702C91.9378 111.575 92.0006 111.456 92.0848 111.353C92.1691 111.25 92.2732 111.164 92.3913 111.101C92.5093 111.037 92.639 110.997 92.7729 110.983C92.9067 110.968 93.0422 110.98 93.1715 111.017C93.3009 111.054 93.4215 111.115 93.5266 111.198C93.6317 111.28 93.7191 111.382 93.784 111.498C93.8488 111.614 93.8897 111.741 93.9045 111.873C93.9737 112.462 94.1909 113.026 94.5365 113.513C94.8419 113.92 95.2309 114.261 95.6784 114.513C95.9109 114.648 96.0791 114.868 96.146 115.125C96.2129 115.382 96.173 115.654 96.0352 115.883C95.9507 116.043 95.8236 116.177 95.6675 116.272C95.5114 116.367 95.332 116.419 95.1482 116.423Z" fill="#008AD1"/>
<path d="M89.0502 98.9868C88.8013 98.9889 88.5602 98.9016 88.3724 98.7413C88.1846 98.581 88.063 98.3588 88.0307 98.1167L82.5867 57.3808C82.5516 57.1155 82.6253 56.8474 82.7916 56.6355C82.9579 56.4235 83.2033 56.2851 83.4736 56.2506C83.744 56.2161 84.0173 56.2884 84.2333 56.4516C84.4494 56.6148 84.5905 56.8555 84.6257 57.1207L90.0798 97.8467C90.0998 97.9797 90.0923 98.1153 90.0577 98.2454C90.0231 98.3755 89.962 98.4974 89.8783 98.6038C89.7945 98.7102 89.6898 98.799 89.5703 98.8648C89.4508 98.9306 89.3189 98.9721 89.1827 98.9868H89.0502Z" fill="#008AD1"/>
<path d="M83.6087 58.2562C83.3383 58.2841 83.0677 58.2054 82.8565 58.0376C82.6452 57.8697 82.5106 57.6264 82.4822 57.3612C82.4538 57.096 82.534 56.8306 82.7051 56.6234C82.8762 56.4161 83.1242 56.2841 83.3946 56.2562C83.5272 56.2286 83.6642 56.2272 83.7974 56.2521C83.9306 56.277 84.0574 56.3277 84.1704 56.4013C84.2833 56.4748 84.3802 56.5698 84.4553 56.6805C84.5304 56.7912 84.5823 56.9156 84.6078 57.0462C84.6592 57.3032 84.6058 57.5698 84.459 57.7885C84.3122 58.0073 84.0838 58.1609 83.8228 58.2162H83.6087V58.2562Z" fill="#008AD1"/>
</g>
<defs>
<clipPath id="clip0_21_9118">
<rect width="138" height="144" fill="white" transform="translate(50 33)"/>
</clipPath>
</defs>
</svg>
