<svg width="238" height="210" viewBox="0 0 238 210" fill="none" xmlns="http://www.w3.org/2000/svg">
<rect x="0.5" y="0.5" width="237" height="209" fill="#F1F8FB" stroke="#008AD1"/>
<g clip-path="url(#clip0_21_9138)">
<path d="M57.6898 148.047V149.414H52.9184V148.047H57.6898ZM59.0023 148.047V158H57.2865V148.047H59.0023ZM52.5766 148.047H54.2787L54.0395 152.989C54.0076 153.714 53.946 154.352 53.8549 154.903C53.7637 155.455 53.6407 155.926 53.4857 156.318C53.3308 156.71 53.1348 157.032 52.8979 157.282C52.6609 157.528 52.376 157.711 52.0434 157.829C51.7152 157.943 51.3301 158 50.8881 158H50.4506V156.64L50.7172 156.619C50.9587 156.601 51.1661 156.544 51.3393 156.448C51.517 156.348 51.6674 156.202 51.7904 156.011C51.9135 155.815 52.016 155.562 52.098 155.252C52.1801 154.942 52.2439 154.564 52.2895 154.117C52.3396 153.671 52.376 153.149 52.3988 152.552L52.5766 148.047ZM63.4553 155.204L67.8713 148.047H69.5871V158H67.8713V150.836L63.4553 158H61.7463V148.047H63.4553V155.204ZM72.1328 148.047H73.8486V151.13C73.8486 151.599 73.9193 151.968 74.0605 152.237C74.2018 152.502 74.416 152.688 74.7031 152.798C74.9948 152.907 75.3571 152.962 75.79 152.962C75.9997 152.962 76.2207 152.953 76.4531 152.935C76.6855 152.916 76.918 152.891 77.1504 152.859C77.3874 152.823 77.6152 152.782 77.834 152.736C78.0527 152.686 78.2533 152.632 78.4355 152.572V153.933C78.2578 153.987 78.0618 154.04 77.8477 154.09C77.638 154.14 77.4193 154.183 77.1914 154.22C76.9635 154.252 76.7311 154.277 76.4941 154.295C76.2572 154.313 76.0225 154.322 75.79 154.322C75.0381 154.322 74.3887 154.215 73.8418 154.001C73.2949 153.782 72.8734 153.438 72.5771 152.969C72.2809 152.499 72.1328 151.886 72.1328 151.13V148.047ZM78.0459 148.047H79.7617V158H78.0459V148.047ZM89.0955 152.203V153.563H83.8113V152.203H89.0955ZM84.2352 148.047V158H82.5193V148.047H84.2352ZM90.4148 148.047V158H88.7059V148.047H90.4148ZM94.3756 151.868H96.8844C97.6409 151.868 98.2857 151.996 98.8189 152.251C99.3567 152.502 99.7669 152.855 100.049 153.311C100.337 153.766 100.48 154.297 100.48 154.903C100.48 155.359 100.398 155.776 100.234 156.154C100.074 156.533 99.8398 156.861 99.5299 157.139C99.22 157.412 98.8417 157.624 98.3951 157.774C97.9531 157.925 97.4495 158 96.8844 158H93.193V148.047H94.9088V156.64H96.8844C97.3173 156.64 97.6728 156.56 97.9508 156.4C98.2288 156.236 98.4339 156.022 98.566 155.758C98.7027 155.493 98.7711 155.204 98.7711 154.89C98.7711 154.584 98.7027 154.306 98.566 154.056C98.4339 153.805 98.2288 153.604 97.9508 153.454C97.6728 153.304 97.3173 153.229 96.8844 153.229H94.3756V151.868ZM103.221 148.047V158H101.505V148.047H103.221ZM107.695 155.204L112.111 148.047H113.827V158H112.111V150.836L107.695 158H105.986V148.047H107.695V155.204ZM110.928 145.497H112.152C112.152 145.875 112.061 146.21 111.878 146.502C111.701 146.789 111.445 147.015 111.113 147.179C110.785 147.343 110.393 147.425 109.937 147.425C109.249 147.425 108.704 147.247 108.303 146.892C107.907 146.532 107.708 146.067 107.708 145.497H108.932C108.932 145.752 109.007 145.978 109.158 146.174C109.313 146.365 109.572 146.461 109.937 146.461C110.297 146.461 110.552 146.365 110.703 146.174C110.853 145.978 110.928 145.752 110.928 145.497ZM122.514 148.047V158H120.805V148.047H122.514ZM128.502 148.047L124.455 153.721H122.028L121.796 152.23H123.505L126.403 148.047H128.502ZM126.752 158L123.532 153.461L124.64 152.142L128.81 158H126.752ZM134.37 149.373L131.396 158H129.598L133.345 148.047H134.493L134.37 149.373ZM136.858 158L133.878 149.373L133.748 148.047H134.903L138.663 158H136.858ZM136.715 154.309V155.669H131.301V154.309H136.715ZM146.787 148.047V149.414H142.159V158H140.45V148.047H146.787ZM141.639 151.868H144.141C144.898 151.868 145.545 151.996 146.083 152.251C146.62 152.502 147.031 152.855 147.313 153.311C147.596 153.766 147.737 154.297 147.737 154.903C147.737 155.359 147.657 155.776 147.498 156.154C147.338 156.533 147.103 156.861 146.794 157.139C146.484 157.412 146.105 157.624 145.659 157.774C145.217 157.925 144.711 158 144.141 158H140.45V148.047H142.172V156.64H144.141C144.574 156.64 144.93 156.56 145.208 156.4C145.486 156.236 145.691 156.022 145.823 155.758C145.96 155.493 146.028 155.204 146.028 154.89C146.028 154.584 145.96 154.306 145.823 154.056C145.691 153.805 145.486 153.604 145.208 153.454C144.93 153.304 144.574 153.229 144.141 153.229H141.639V151.868ZM151.677 155.204L156.093 148.047H157.809V158H156.093V150.836L151.677 158H149.968V148.047H151.677V155.204ZM167.143 152.203V153.563H161.859V152.203H167.143ZM162.282 148.047V158H160.567V148.047H162.282ZM168.462 148.047V158H166.753V148.047H168.462ZM177.721 156.64V158H172.437V156.64H177.721ZM172.922 148.047V158H171.206V148.047H172.922ZM177.03 152.203V153.543H172.437V152.203H177.03ZM177.687 148.047V149.414H172.437V148.047H177.687ZM184.054 148.047V158H182.351V148.047H184.054ZM187.178 148.047V149.414H179.255V148.047H187.178ZM87.9211 170.76H89.6301C89.5754 171.411 89.3931 171.993 89.0832 172.503C88.7733 173.009 88.3381 173.408 87.7775 173.699C87.217 173.991 86.5357 174.137 85.7336 174.137C85.1184 174.137 84.5646 174.027 84.0725 173.809C83.5803 173.585 83.1587 173.271 82.8078 172.865C82.4569 172.455 82.188 171.961 82.0012 171.382C81.8189 170.803 81.7277 170.156 81.7277 169.44V168.613C81.7277 167.898 81.8212 167.251 82.008 166.672C82.1994 166.093 82.4729 165.599 82.8283 165.188C83.1838 164.774 83.6099 164.457 84.1066 164.238C84.6079 164.02 85.1708 163.91 85.7951 163.91C86.5881 163.91 87.258 164.056 87.8049 164.348C88.3518 164.639 88.7756 165.043 89.0764 165.558C89.3817 166.073 89.5686 166.663 89.6369 167.328H87.9279C87.8824 166.9 87.7821 166.533 87.6271 166.228C87.4768 165.922 87.2534 165.69 86.9572 165.53C86.661 165.366 86.2736 165.284 85.7951 165.284C85.4032 165.284 85.0614 165.357 84.7697 165.503C84.4781 165.649 84.2342 165.863 84.0383 166.146C83.8423 166.428 83.6942 166.777 83.5939 167.191C83.4982 167.602 83.4504 168.071 83.4504 168.6V169.44C83.4504 169.942 83.4937 170.397 83.5803 170.808C83.6714 171.213 83.8081 171.562 83.9904 171.854C84.1773 172.145 84.4143 172.371 84.7014 172.53C84.9885 172.69 85.3326 172.77 85.7336 172.77C86.2212 172.77 86.6154 172.692 86.9162 172.537C87.2215 172.382 87.4517 172.157 87.6066 171.86C87.7661 171.56 87.871 171.193 87.9211 170.76ZM95.7783 164.047V174H94.0762V164.047H95.7783ZM98.9023 164.047V165.414H90.9795V164.047H98.9023ZM104.018 170.534L106.548 164.047H108.441L104.982 172.195C104.873 172.446 104.748 172.69 104.606 172.927C104.47 173.159 104.303 173.367 104.107 173.549C103.911 173.731 103.674 173.877 103.396 173.986C103.118 174.091 102.781 174.144 102.385 174.144C102.28 174.144 102.152 174.139 102.002 174.13C101.856 174.121 101.749 174.112 101.68 174.103L101.694 172.756C101.749 172.765 101.84 172.772 101.968 172.776C102.1 172.781 102.195 172.783 102.255 172.783C102.519 172.783 102.729 172.74 102.884 172.653C103.039 172.562 103.162 172.441 103.253 172.291C103.348 172.136 103.433 171.967 103.506 171.785L104.018 170.534ZM102.118 164.047L104.62 169.557L105.112 171.348L103.779 171.396L100.245 164.047H102.118ZM117.748 172.64V174H110.413V172.64H117.748ZM110.837 172.64V176.447H109.196L109.134 172.64H110.837ZM119.074 172.64L118.971 176.44H117.358V172.64H119.074ZM116.545 164.047V165.414H111.951V164.047H116.545ZM117.857 164.047V174H116.148V164.047H117.857ZM111.609 164.047H113.325L113.086 168.08C113.049 168.718 112.983 169.292 112.887 169.803C112.792 170.313 112.675 170.771 112.539 171.177C112.407 171.578 112.256 171.933 112.088 172.243C111.919 172.549 111.739 172.813 111.547 173.036C111.356 173.259 111.16 173.451 110.96 173.61C110.764 173.765 110.57 173.895 110.379 174H109.463V172.64H109.907C110.03 172.526 110.167 172.362 110.317 172.147C110.467 171.929 110.613 171.644 110.754 171.293C110.9 170.938 111.028 170.498 111.137 169.974C111.247 169.45 111.322 168.818 111.363 168.08L111.609 164.047ZM127.587 172.64V174H122.303V172.64H127.587ZM122.788 164.047V174H121.073V164.047H122.788ZM126.897 168.203V169.543H122.303V168.203H126.897ZM127.553 164.047V165.414H122.303V164.047H127.553ZM136.265 168.203V169.563H130.981V168.203H136.265ZM131.404 164.047V174H129.689V164.047H131.404ZM137.584 164.047V174H135.875V164.047H137.584ZM144.218 164.047V174H142.516V164.047H144.218ZM147.342 164.047V165.414H139.419V164.047H147.342ZM152.574 165.373L149.6 174H147.803L151.549 164.047H152.697L152.574 165.373ZM155.062 174L152.082 165.373L151.952 164.047H153.107L156.867 174H155.062ZM154.919 170.309V171.669H149.505V170.309H154.919Z" fill="#008AD1"/>
<path d="M139.88 51.6727C139.649 51.6733 139.426 51.5925 139.248 51.4443C139.071 51.2961 138.95 51.0898 138.906 50.861C138.863 50.6323 138.9 50.3953 139.011 50.1912C139.122 49.987 139.3 49.8285 139.514 49.7429L148.756 46.0532L117.263 35.0541L85.7701 46.0532L94.3007 49.4729C94.5183 49.5528 94.7014 49.7074 94.8179 49.9098C94.9344 50.1123 94.9769 50.3496 94.9381 50.5805C94.8992 50.8115 94.7815 51.0212 94.6054 51.1733C94.4293 51.3254 94.206 51.4101 93.9745 51.4127C93.8493 51.413 93.7252 51.3893 93.6087 51.3427L82.5575 46.9231C82.3667 46.853 82.2018 46.7252 82.0853 46.5571C81.9688 46.3889 81.9062 46.1885 81.9062 45.9832C81.9062 45.7778 81.9688 45.5774 82.0853 45.4093C82.2018 45.2411 82.3667 45.1133 82.5575 45.0433L116.986 33.0543C117.195 32.9819 117.421 32.9819 117.629 33.0543L151.919 45.0033C152.104 45.0684 152.266 45.1878 152.384 45.3463C152.502 45.5048 152.571 45.6951 152.582 45.8932C152.603 46.0961 152.562 46.3006 152.465 46.4793C152.367 46.658 152.219 46.8024 152.038 46.8931H151.939L140.235 51.6027C140.123 51.65 140.002 51.6738 139.88 51.6727Z" fill="#008AD1"/>
<path d="M151.59 64.7561C151.328 64.7561 151.076 64.6508 150.891 64.4633C150.706 64.2757 150.602 64.0214 150.602 63.7562V46.0077C150.602 45.7425 150.706 45.4882 150.891 45.3007C151.076 45.1132 151.328 45.0078 151.59 45.0078C151.852 45.0078 152.104 45.1132 152.289 45.3007C152.474 45.4882 152.579 45.7425 152.579 46.0077V63.7562C152.579 64.0214 152.474 64.2757 152.289 64.4633C152.104 64.6508 151.852 64.7561 151.59 64.7561Z" fill="#008AD1"/>
<path d="M151.592 69.5978C150.923 69.5978 150.269 69.3972 149.713 69.0214C149.157 68.6456 148.724 68.1115 148.468 67.4866C148.212 66.8617 148.145 66.174 148.276 65.5106C148.406 64.8472 148.728 64.2378 149.201 63.7595C149.674 63.2812 150.276 62.9555 150.932 62.8235C151.588 62.6916 152.268 62.7593 152.885 63.0181C153.503 63.277 154.031 63.7153 154.403 64.2778C154.774 64.8402 154.972 65.5014 154.972 66.1778C154.972 66.6269 154.885 67.0717 154.715 67.4866C154.545 67.9015 154.296 68.2785 153.982 68.5961C153.668 68.9137 153.296 69.1656 152.885 69.3375C152.475 69.5094 152.036 69.5978 151.592 69.5978ZM151.592 64.7578C151.314 64.7578 151.043 64.8411 150.812 64.9971C150.581 65.1532 150.401 65.3749 150.295 65.6344C150.189 65.8939 150.161 66.1794 150.215 66.4548C150.269 66.7303 150.403 66.9833 150.599 67.1819C150.795 67.3805 151.046 67.5157 151.318 67.5705C151.59 67.6253 151.872 67.5972 152.129 67.4897C152.385 67.3822 152.605 67.2002 152.759 66.9667C152.913 66.7332 152.995 66.4587 152.995 66.1778C152.993 65.802 152.844 65.4424 152.581 65.1766C152.319 64.9109 151.963 64.7604 151.592 64.7578Z" fill="#008AD1"/>
<path d="M151.592 79.2845C150.326 79.2845 148.211 78.5746 148.211 73.845C148.316 71.8272 148.792 69.8468 149.615 68.0055C149.662 67.8797 149.734 67.7648 149.826 67.6676C149.918 67.5705 150.028 67.4932 150.151 67.4403C150.273 67.3875 150.405 67.3601 150.538 67.3599C150.671 67.3597 150.802 67.3867 150.925 67.4392C151.047 67.4917 151.158 67.5687 151.25 67.6656C151.343 67.7624 151.415 67.8771 151.462 68.0028C151.51 68.1285 151.532 68.2626 151.527 68.3971C151.522 68.5316 151.49 68.6637 151.433 68.7854C150.702 70.3919 150.266 72.1202 150.148 73.885C150.148 75.4549 150.396 77.3247 151.552 77.3247C152.709 77.3247 152.956 75.4549 152.956 73.885C152.843 72.1194 152.407 70.3903 151.671 68.7854C151.568 68.5309 151.57 68.2456 151.676 67.9925C151.782 67.7393 151.982 67.539 152.234 67.4356C152.486 67.3321 152.768 67.3341 153.018 67.441C153.268 67.5479 153.466 67.7509 153.569 68.0055C154.401 69.8592 154.887 71.8525 155.002 73.885C154.962 78.5746 152.847 79.2845 151.592 79.2845Z" fill="#008AD1"/>
<path d="M140.205 58.9038H140.037C124.629 56.1738 108.868 56.1738 93.4597 58.9038C93.3185 58.9281 93.1737 58.9209 93.0354 58.8829C92.8972 58.845 92.7688 58.777 92.659 58.6838C92.5407 58.5917 92.4446 58.4737 92.3778 58.3386C92.311 58.2035 92.2754 58.0549 92.2735 57.9038C92.2735 55.4338 92.2735 52.9738 92.2735 50.5038C92.2705 50.2642 92.3526 50.0313 92.505 49.8478C92.6574 49.6642 92.8699 49.5422 93.1038 49.5038C108.896 46.9331 125 47.0344 140.759 49.8038C140.991 49.8443 141.201 49.9673 141.351 50.1506C141.502 50.334 141.582 50.5656 141.579 50.8038C141.441 53.1772 141.286 55.5472 141.114 57.9138C141.104 58.0521 141.065 58.1866 141 58.3088C140.936 58.431 140.847 58.5383 140.739 58.6238C140.594 58.771 140.407 58.8688 140.205 58.9038ZM116.748 54.8438C124.302 54.8416 131.844 55.4704 139.296 56.7238L139.622 51.6438C124.63 49.1012 109.332 49.0066 94.3098 51.3638C94.3098 53.1538 94.3098 54.9338 94.3098 56.7138C101.726 55.4706 109.231 54.8451 116.748 54.8438Z" fill="#008AD1"/>
<path d="M116.994 103.585C109.086 103.585 94.3672 95.7261 94.3672 80.6874C94.3672 80.4222 94.4713 80.1679 94.6567 79.9804C94.8421 79.7929 95.0935 79.6875 95.3557 79.6875C95.6178 79.6875 95.8693 79.7929 96.0546 79.9804C96.24 80.1679 96.3442 80.4222 96.3442 80.6874C96.3442 94.4062 109.788 101.586 116.994 101.586C124.2 101.586 137.643 94.4062 137.643 80.6874C137.643 80.4222 137.747 80.1679 137.932 79.9804C138.118 79.7929 138.369 79.6875 138.631 79.6875C138.894 79.6875 139.145 79.7929 139.33 79.9804C139.516 80.1679 139.62 80.4222 139.62 80.6874C139.61 95.7261 124.901 103.585 116.994 103.585Z" fill="#008AD1"/>
<path d="M140.161 86.0078C139.726 85.9907 139.299 85.8834 138.906 85.6925C138.513 85.5016 138.163 85.2311 137.878 84.8978C137.708 84.6962 137.623 84.4344 137.644 84.17C137.664 83.9056 137.787 83.6602 137.987 83.4878C138.186 83.3154 138.445 83.2301 138.706 83.2508C138.967 83.2714 139.21 83.3962 139.38 83.5978C139.586 83.8218 139.862 83.9667 140.161 84.0078C140.814 84.0078 141.792 82.4378 141.792 80.0078C141.846 79.3316 141.766 78.6515 141.559 78.0063C141.353 77.3611 141.022 76.7636 140.586 76.2478C140.472 76.1709 140.374 76.0707 140.3 75.9534C140.226 75.8362 140.176 75.7046 140.155 75.567C140.134 75.4295 140.142 75.289 140.178 75.1545C140.213 75.0201 140.276 74.8947 140.363 74.7863C140.449 74.6779 140.557 74.589 140.679 74.5252C140.802 74.4614 140.936 74.4242 141.073 74.4159C141.21 74.4075 141.348 74.4283 141.477 74.4768C141.606 74.5254 141.724 74.6006 141.822 74.6978C143.028 75.6978 143.799 77.6978 143.799 80.0078C143.769 83.4378 142.217 86.0078 140.161 86.0078Z" fill="#008AD1"/>
<path d="M93.7956 86.0039C91.7395 86.0039 90.1875 83.4439 90.1875 80.0039C90.1875 77.7039 90.9388 75.6739 92.1645 74.6939C92.2641 74.6033 92.3809 74.5341 92.5078 74.4905C92.6346 74.447 92.7689 74.43 92.9024 74.4405C93.036 74.4511 93.166 74.489 93.2846 74.5519C93.4033 74.6149 93.508 74.7016 93.5925 74.8067C93.677 74.9119 93.7395 75.0333 93.7762 75.1636C93.8128 75.294 93.823 75.4305 93.8059 75.5649C93.7888 75.6993 93.745 75.8288 93.6769 75.9455C93.6089 76.0622 93.5181 76.1637 93.41 76.2439C92.9676 76.7566 92.6297 77.3527 92.416 77.998C92.2022 78.6433 92.1168 79.325 92.1645 80.0039C92.1645 82.3839 93.153 84.0039 93.7956 84.0039C94.1017 83.9614 94.3825 83.8087 94.5864 83.5739C94.6665 83.4614 94.7688 83.367 94.8868 83.2967C95.0049 83.2263 95.1361 83.1816 95.2722 83.1653C95.4083 83.149 95.5462 83.1615 95.6772 83.202C95.8083 83.2425 95.9296 83.3101 96.0334 83.4005C96.1372 83.491 96.2214 83.6022 96.2804 83.7273C96.3395 83.8524 96.3722 83.9885 96.3765 84.1271C96.3808 84.2656 96.3566 84.4035 96.3053 84.5321C96.2541 84.6607 96.1771 84.777 96.079 84.8739C95.796 85.2113 95.447 85.4858 95.054 85.6803C94.6611 85.8748 94.2326 85.9849 93.7956 86.0039Z" fill="#008AD1"/>
<path d="M95.3347 81.6895C95.1927 81.6908 95.052 81.661 94.9224 81.6024C94.7928 81.5437 94.6772 81.4575 94.5834 81.3495C94.2968 81.0096 87.6641 73.0203 92.3495 57.6016C92.4328 57.3558 92.6075 57.1525 92.8365 57.0347C93.0654 56.9169 93.3308 56.8939 93.5762 56.9706C93.8217 57.0473 94.0279 57.2177 94.1514 57.4456C94.2748 57.6734 94.3057 57.941 94.2375 58.1915C91.272 67.9507 93.1402 74.5001 94.6823 77.7099C95.3841 72.2903 97.1139 62.0912 100.336 60.3513C102.6 59.1214 109.737 60.0814 115.322 61.1013C116.414 61.2912 117.531 61.2912 118.623 61.1013C124.208 60.1014 131.345 59.1014 133.609 60.3513C136.831 62.0912 138.551 72.2603 139.263 77.6899C140.795 74.4501 142.683 67.8907 139.708 58.1915C139.665 58.0649 139.647 57.9308 139.657 57.7972C139.666 57.6636 139.702 57.5333 139.762 57.4139C139.822 57.2946 139.905 57.1886 140.006 57.1023C140.107 57.0161 140.224 56.9513 140.351 56.9117C140.477 56.8722 140.61 56.8588 140.742 56.8723C140.874 56.8857 141.002 56.9258 141.118 56.9902C141.234 57.0545 141.336 57.1418 141.418 57.2468C141.5 57.3518 141.561 57.4725 141.596 57.6016C146.321 73.0003 139.648 80.9996 139.362 81.3495C139.234 81.4961 139.067 81.6016 138.881 81.6532C138.694 81.7047 138.497 81.7 138.314 81.6395C138.131 81.5803 137.969 81.4683 137.848 81.3174C137.727 81.1664 137.652 80.983 137.632 80.7896C136.93 73.7902 134.923 63.3311 132.689 62.1112C131.701 61.5512 127.52 61.5112 118.979 63.1111C117.672 63.3555 116.332 63.3555 115.025 63.1111C107.987 61.8312 102.61 61.4612 101.315 62.1112C99.0711 63.3311 97.0645 73.7702 96.3726 80.7896C96.3529 80.983 96.2779 81.1664 96.1568 81.3174C96.0356 81.4683 95.8736 81.5803 95.6905 81.6395C95.5774 81.6839 95.4555 81.7011 95.3347 81.6895Z" fill="#008AD1"/>
<path d="M151.973 124.998H81.9885C81.7263 124.998 81.4749 124.893 81.2895 124.706C81.1041 124.518 81 124.264 81 123.998C81 119.225 82.8746 114.647 86.2114 111.272C89.5481 107.896 94.0738 106 98.7927 106H110.566C110.828 106 111.079 106.105 111.264 106.293C111.45 106.48 111.554 106.735 111.554 107C111.554 107.265 111.45 107.519 111.264 107.707C111.079 107.894 110.828 108 110.566 108H98.7828C94.754 107.992 90.874 109.539 87.9349 112.327C84.9957 115.114 83.2189 118.931 82.9671 122.999H150.945C150.694 118.94 148.924 115.13 145.995 112.344C143.067 109.558 139.199 108.005 135.179 108H123.386C123.124 108 122.873 107.894 122.687 107.707C122.502 107.519 122.398 107.265 122.398 107C122.398 106.735 122.502 106.48 122.687 106.293C122.873 106.105 123.124 106 123.386 106H135.179C137.515 106 139.829 106.466 141.988 107.37C144.146 108.275 146.108 109.6 147.76 111.272C149.412 112.943 150.723 114.927 151.617 117.111C152.511 119.294 152.971 121.635 152.971 123.998C152.971 124.131 152.946 124.261 152.895 124.383C152.845 124.505 152.771 124.616 152.678 124.709C152.586 124.802 152.475 124.875 152.354 124.925C152.233 124.975 152.104 125 151.973 124.998Z" fill="#008AD1"/>
<path d="M116.992 110.645C114.334 110.654 111.78 109.601 109.885 107.715C109.788 107.622 109.711 107.511 109.659 107.387C109.606 107.263 109.579 107.13 109.578 106.995V101.195C109.578 100.93 109.682 100.676 109.868 100.488C110.053 100.301 110.304 100.195 110.567 100.195C110.829 100.195 111.08 100.301 111.266 100.488C111.451 100.676 111.555 100.93 111.555 101.195V106.565C113.053 107.912 114.988 108.656 116.992 108.656C118.996 108.656 120.931 107.912 122.429 106.565V101.205C122.429 100.94 122.533 100.686 122.718 100.498C122.904 100.311 123.155 100.205 123.417 100.205C123.679 100.205 123.931 100.311 124.116 100.498C124.302 100.686 124.406 100.94 124.406 101.205V106.995C124.407 107.127 124.382 107.257 124.332 107.379C124.283 107.501 124.211 107.612 124.119 107.705C122.221 109.599 119.658 110.656 116.992 110.645Z" fill="#008AD1"/>
</g>
<defs>
<clipPath id="clip0_21_9138">
<rect width="138" height="144" fill="white" transform="translate(50 33)"/>
</clipPath>
</defs>
</svg>
