<svg width="40" height="48" viewBox="0 0 40 48" fill="none" xmlns="http://www.w3.org/2000/svg">
<path d="M39.9872 13.9065H39.6872L39.9872 13.8641C39.9482 13.5607 39.8136 13.278 39.6032 13.0578L27.1173 0.448598C27.0484 0.377714 26.9719 0.314694 26.8893 0.260671L26.8293 0.224299C26.7653 0.184338 26.6993 0.147912 26.6313 0.11518L26.5233 0.0848695C26.4675 0.0603632 26.4091 0.0420697 26.3494 0.0303108C26.2525 0.0109374 26.1541 0.000789184 26.0554 0H6.01561C5.61779 0 5.23626 0.159672 4.95496 0.44389C4.67366 0.728108 4.51562 1.11359 4.51562 1.51553V17.8106C4.51562 18.2125 4.67366 18.598 4.95496 18.8822C5.23626 19.1664 5.61779 19.3261 6.01561 19.3261C6.41343 19.3261 6.79495 19.1664 7.07625 18.8822C7.35755 18.598 7.51559 18.2125 7.51559 17.8106V3.04925H24.5554V14.046C24.5569 14.4464 24.7147 14.83 24.9943 15.1137C25.274 15.3974 25.6531 15.5583 26.0494 15.5615L37.0052 15.6221V44.9689H7.51559V42.6229C7.51559 42.2209 7.35755 41.8355 7.07625 41.5512C6.79495 41.267 6.41343 41.1073 6.01561 41.1073C5.61779 41.1073 5.23626 41.267 4.95496 41.5512C4.67366 41.8355 4.51562 42.2209 4.51562 42.6229V46.4845C4.51562 46.8864 4.67366 47.2719 4.95496 47.5561C5.23626 47.8403 5.61779 48 6.01561 48H38.5052C38.903 48 39.2845 47.8403 39.5658 47.5561C39.8472 47.2719 40.0052 46.8864 40.0052 46.4845V14.1127C40.005 14.0436 39.999 13.9746 39.9872 13.9065ZM27.5553 12.5365V5.19525L34.8632 12.5729L27.5553 12.5365Z" fill="black"/>
<path d="M16.9225 27.4636C16.6771 27.4319 16.4278 27.4722 16.2044 27.5797C15.981 27.6872 15.7929 27.8574 15.6625 28.0699C15.3832 28.7611 15.2622 29.5071 15.3085 30.2522C15.2571 30.9813 15.3763 31.7123 15.6565 32.3861C15.7894 32.5975 15.9789 32.7666 16.2029 32.8739C16.4269 32.9812 16.6764 33.0222 16.9225 32.9923C17.1686 33.0222 17.4181 32.9812 17.6421 32.8739C17.8661 32.7666 18.0555 32.5975 18.1885 32.3861C18.4711 31.7129 18.5924 30.9818 18.5425 30.2522C18.5905 29.5065 18.4673 28.7596 18.1825 28.0699C18.0521 27.8574 17.864 27.6872 17.6406 27.5797C17.4172 27.4722 17.1679 27.4319 16.9225 27.4636Z" fill="black"/>
<path d="M10.2292 28.155C10.1234 27.9565 9.9479 27.8051 9.73723 27.7307C9.43257 27.6349 9.11409 27.5919 8.79524 27.6034H7.78125V32.8592H8.79524C9.02393 32.8817 9.25472 32.8543 9.47207 32.779C9.68941 32.7037 9.88826 32.5823 10.0552 32.4228C10.3305 32.0361 10.4775 31.5714 10.4752 31.0952C10.4752 30.8345 10.4752 30.489 10.4752 30.004C10.4784 29.6316 10.4624 29.2593 10.4272 28.8885C10.4065 28.6338 10.3394 28.3851 10.2292 28.155Z" fill="black"/>
<path d="M31.7936 21.1484H1.49998C1.10216 21.1484 0.720636 21.3081 0.439334 21.5923C0.158033 21.8765 0 22.262 0 22.664V37.7769C0 38.1788 0.158033 38.5643 0.439334 38.8485C0.720636 39.1327 1.10216 39.2924 1.49998 39.2924H31.7936C32.1914 39.2924 32.573 39.1327 32.8543 38.8485C33.1356 38.5643 33.2936 38.1788 33.2936 37.7769V22.664C33.2936 22.262 33.1356 21.8765 32.8543 21.5923C32.573 21.3081 32.1914 21.1484 31.7936 21.1484ZM12.3118 32.0178C12.2293 32.5068 12.0519 32.9745 11.7899 33.394C11.5163 33.8139 11.1136 34.1313 10.6439 34.2972C10.0463 34.4966 9.4189 34.5889 8.78989 34.57H5.86793V25.9133H8.78989C9.39828 25.8994 10.0052 25.9791 10.5899 26.1497C11.0441 26.2845 11.4437 26.5628 11.7299 26.9438C12.003 27.3273 12.1913 27.7656 12.2818 28.229C12.3914 28.8491 12.4417 29.4784 12.4318 30.1083C12.4462 30.7471 12.406 31.386 12.3118 32.0178ZM19.6918 33.6243C19.1518 34.3518 18.2218 34.7216 16.9198 34.7216C15.6178 34.7216 14.6878 34.3518 14.1478 33.6243C13.6078 32.8969 13.3498 31.8057 13.3498 30.278C13.2648 29.0924 13.5435 27.9092 14.1478 26.8893C14.6878 26.1376 15.6178 25.7617 16.9198 25.7617C18.2218 25.7617 19.1518 26.1376 19.6918 26.8893C20.2982 27.9085 20.579 29.0918 20.4958 30.278C20.4958 31.7875 20.2258 32.909 19.6918 33.6243ZM23.6817 32.4786C23.83 32.6685 24.0248 32.8159 24.2469 32.9063C24.469 32.9967 24.7105 33.0268 24.9477 32.9939C25.665 32.9889 26.381 32.9302 27.0897 32.8181H27.2037L27.2457 34.4003H27.1617C26.3843 34.5827 25.5897 34.6803 24.7917 34.6913C24.2096 34.7132 23.6288 34.6205 23.0817 34.4185C22.6531 34.2456 22.2898 33.94 22.0437 33.5455C21.7887 33.1221 21.6175 32.6527 21.5397 32.1633C21.439 31.5178 21.3928 30.8648 21.4017 30.2113C21.4017 28.5382 21.6297 27.4046 22.1037 26.7377C22.5777 26.0709 23.4537 25.7314 24.7077 25.7314C25.5488 25.7547 26.3844 25.8767 27.1977 26.0951H27.2817L27.1977 27.6895H27.0837C25.5117 27.447 24.4137 27.4349 23.9817 27.6895C23.7347 27.8742 23.5672 28.1475 23.5137 28.4533C23.3806 29.1276 23.3262 29.8153 23.3517 30.5023C23.3009 31.1784 23.4141 31.8568 23.6817 32.4786Z" fill="black"/>
</svg>
