<svg width="40" height="48" viewBox="0 0 40 48" fill="none" xmlns="http://www.w3.org/2000/svg">
<path d="M39.9845 13.9065H39.6845L39.9845 13.8641C39.9455 13.5607 39.8109 13.278 39.6005 13.0578L27.1128 0.448598C27.0438 0.377714 26.9674 0.314694 26.8848 0.260671L26.8248 0.224299C26.7608 0.184338 26.6947 0.147912 26.6267 0.11518L26.5187 0.0848695C26.4629 0.0603632 26.4045 0.0420697 26.3447 0.0303108C26.2479 0.0109374 26.1494 0.000789184 26.0507 0H6.00801C5.61013 0 5.22855 0.159672 4.94721 0.44389C4.66587 0.728108 4.50781 1.11359 4.50781 1.51553V17.8106C4.50781 18.2125 4.66587 18.598 4.94721 18.8822C5.22855 19.1664 5.61013 19.3261 6.00801 19.3261C6.40589 19.3261 6.78747 19.1664 7.06881 18.8822C7.35015 18.598 7.50821 18.2125 7.50821 17.8106V3.04925H24.5505V14.046C24.552 14.4464 24.7098 14.83 24.9895 15.1137C25.2692 15.3974 25.6483 15.5583 26.0447 15.5615L37.0021 15.6221V44.9689H7.50821V42.6229C7.50821 42.2209 7.35015 41.8355 7.06881 41.5512C6.78747 41.267 6.40589 41.1073 6.00801 41.1073C5.61013 41.1073 5.22855 41.267 4.94721 41.5512C4.66587 41.8355 4.50781 42.2209 4.50781 42.6229V46.4845C4.50781 46.8864 4.66587 47.2719 4.94721 47.5561C5.22855 47.8403 5.61013 48 6.00801 48H38.5023C38.9002 48 39.2818 47.8403 39.5631 47.5561C39.8445 47.2719 40.0025 46.8864 40.0025 46.4845V14.1127C40.0023 14.0436 39.9963 13.9746 39.9845 13.9065ZM27.5509 12.5365V5.19525L34.8598 12.5729L27.5509 12.5365Z" fill="black"/>
<path d="M6.72176 28.1549C6.61593 27.9564 6.4404 27.805 6.2297 27.7306C5.9249 27.6353 5.60645 27.5922 5.28757 27.6032H4.27344V32.8591H5.28757C5.51627 32.8812 5.74699 32.8536 5.96431 32.7783C6.18162 32.7031 6.38053 32.5818 6.54774 32.4226C6.82046 32.0347 6.96723 31.5708 6.9678 31.095C6.9678 30.8344 6.9678 30.4888 6.9678 30.0039C6.97097 29.6315 6.95494 29.2591 6.91979 28.8884C6.89629 28.6342 6.82929 28.386 6.72176 28.1549Z" fill="black"/>
<path d="M13.3968 27.4636C13.1513 27.4319 12.902 27.4722 12.6786 27.5797C12.4551 27.6872 12.267 27.8574 12.1366 28.0699C11.8518 28.7596 11.7285 29.5065 11.7766 30.2522C11.7266 30.9818 11.8479 31.7129 12.1306 32.3861C12.2636 32.5975 12.453 32.7666 12.6771 32.8739C12.9011 32.9812 13.1506 33.0222 13.3968 32.9923C13.643 33.0222 13.8925 32.9812 14.1165 32.8739C14.3406 32.7666 14.53 32.5975 14.663 32.3861C14.9432 31.7123 15.0624 30.9813 15.011 30.2522C15.0567 29.5071 14.9357 28.7612 14.657 28.0699C14.5266 27.8574 14.3385 27.6872 14.115 27.5797C13.8916 27.4722 13.6423 27.4319 13.3968 27.4636Z" fill="black"/>
<path d="M31.7982 21.1484H1.5002C1.10232 21.1484 0.72074 21.3081 0.439398 21.5923C0.158056 21.8765 0 22.262 0 22.664V37.7769C0 38.1788 0.158056 38.5643 0.439398 38.8485C0.72074 39.1327 1.10232 39.2924 1.5002 39.2924H31.7982C32.1961 39.2924 32.5777 39.1327 32.859 38.8485C33.1404 38.5643 33.2984 38.1788 33.2984 37.7769V22.664C33.2984 22.262 33.1404 21.8765 32.859 21.5923C32.5777 21.3081 32.1961 21.1484 31.7982 21.1484ZM8.81517 32.0178C8.73213 32.5095 8.55259 32.9795 8.2871 33.4C8.01504 33.8176 7.61431 34.1329 7.14695 34.2972C6.54932 34.4966 5.9218 34.5889 5.2927 34.57H2.37032V25.9133H5.2927C5.90123 25.8984 6.50842 25.9781 7.09294 26.1497C7.54819 26.286 7.94927 26.5639 8.23909 26.9438C8.51227 27.3273 8.70056 27.7656 8.79117 28.229C8.90075 28.8491 8.95099 29.4784 8.94119 30.1083C8.95353 30.7473 8.91137 31.3862 8.81517 32.0178ZM16.1962 33.6304C15.6561 34.3518 14.726 34.7216 13.4238 34.7216C12.1216 34.7216 11.1915 34.3518 10.6514 33.6304C10.1113 32.909 9.84731 31.8117 9.84731 30.278C9.76408 29.0918 10.0449 27.9085 10.6514 26.8893C11.1915 26.1376 12.1216 25.7617 13.4238 25.7617C14.726 25.7617 15.6561 26.1376 16.1962 26.8893C16.7998 27.9097 17.0804 29.092 17.0003 30.278C17.0003 31.7875 16.7242 32.915 16.1962 33.6304ZM20.1867 32.4786C20.3341 32.668 20.5279 32.8151 20.7489 32.9055C20.97 32.9959 21.2106 33.0264 21.4468 32.9939C22.1683 32.9895 22.8884 32.9307 23.6011 32.8181H23.7151L23.7512 34.4003H23.6671C22.8798 34.5849 22.075 34.6824 21.2668 34.6913C20.6827 34.7126 20.1 34.6199 19.5506 34.4185C19.1248 34.2434 18.7639 33.9382 18.5185 33.5455C18.261 33.1233 18.0896 32.6534 18.0144 32.1633C17.9137 31.5178 17.8675 30.8648 17.8764 30.2113C17.8764 28.5624 18.1104 27.3924 18.5785 26.7377C19.0465 26.083 19.9286 25.7314 21.1768 25.7314C22.0109 25.7454 22.8406 25.8573 23.6491 26.0648H23.7332L23.6791 27.6349H23.5651C21.9749 27.3924 20.8888 27.3803 20.4627 27.6349C20.3355 27.7333 20.2291 27.8564 20.1498 27.9969C20.0704 28.1375 20.0197 28.2927 20.0007 28.4533C19.8675 29.1276 19.8131 29.8153 19.8386 30.5023C19.7934 31.1799 19.9129 31.8583 20.1867 32.4786ZM29.0559 34.57V34.5155L27.5977 31.7693L26.0735 34.57H24.0392L26.5115 30.4114L24.0452 25.9133H26.1695V25.9739L27.6277 28.8958L29.1759 25.9133H31.1801L28.7138 30.3326L31.1861 34.5761L29.0559 34.57Z" fill="black"/>
</svg>
