<svg width="40" height="48" viewBox="0 0 40 48" fill="none" xmlns="http://www.w3.org/2000/svg">
<path d="M39.9767 13.8919L39.6767 13.9282L39.9767 13.8858C39.939 13.5837 39.8041 13.3024 39.5927 13.0854L27.105 0.448711C27.036 0.377809 26.9596 0.314774 26.877 0.260738L26.817 0.224356C26.7529 0.186387 26.6868 0.151975 26.6189 0.121273L26.5109 0.0848916C26.4541 0.0630969 26.396 0.0448711 26.3369 0.0303185C26.24 0.0109401 26.1416 0.000789383 26.0429 0H6.0002C5.60281 0.00159666 5.22214 0.161821 4.94114 0.445766C4.66014 0.72971 4.50158 1.11436 4.5 1.51592V17.7969C4.5 18.1989 4.65806 18.5845 4.9394 18.8688C5.22074 19.1531 5.60232 19.3128 6.0002 19.3128C6.39808 19.3128 6.77966 19.1531 7.061 18.8688C7.34234 18.5845 7.5004 18.1989 7.5004 17.7969V3.03183H24.5427V14.0313C24.5427 14.4323 24.6999 14.817 24.9799 15.1011C25.26 15.3852 25.64 15.5456 26.0369 15.5472L36.9943 15.6079V44.9682H7.5004V42.6155C7.5004 42.2134 7.34234 41.8278 7.061 41.5435C6.77966 41.2593 6.39808 41.0995 6.0002 41.0995C5.60232 41.0995 5.22074 41.2593 4.9394 41.5435C4.65806 41.8278 4.5 42.2134 4.5 42.6155V46.4841C4.50158 46.8856 4.66014 47.2703 4.94114 47.5542C5.22214 47.8382 5.60281 47.9984 6.0002 48H38.4945C38.8919 47.9984 39.2726 47.8382 39.5536 47.5542C39.8346 47.2703 39.9931 46.8856 39.9947 46.4841V14.1041C39.9947 14.033 39.9887 13.962 39.9767 13.8919ZM27.5431 12.5275V5.20263L34.852 12.5639L27.5431 12.5275Z" fill="black"/>
<path d="M14.7914 27.5752H13.5312V30.4251H14.7914C15.5775 30.4251 15.9556 29.934 15.9556 28.9395C15.9896 28.5651 15.8895 28.1907 15.6735 27.8845C15.5569 27.7723 15.4178 27.6866 15.2656 27.6333C15.1135 27.5799 14.9518 27.5601 14.7914 27.5752Z" fill="black"/>
<path d="M31.7982 21.1328H1.5002C1.10281 21.1344 0.722144 21.2946 0.441144 21.5786C0.160143 21.8625 0.0015801 22.2472 0 22.6487V37.7655C0 38.1675 0.158056 38.5531 0.439398 38.8374C0.72074 39.1217 1.10232 39.2814 1.5002 39.2814H31.7982C32.1961 39.2814 32.5777 39.1217 32.859 38.8374C33.1404 38.5531 33.2984 38.1675 33.2984 37.7655V22.6487C33.2968 22.2472 33.1383 21.8625 32.8573 21.5786C32.5763 21.2946 32.1956 21.1344 31.7982 21.1328ZM9.43325 34.9155C8.80278 35.3015 8.06748 35.4755 7.33297 35.4128H7.23096V33.7028H7.33297C7.56424 33.7342 7.79918 33.685 7.99906 33.5633C8.0686 33.4801 8.12047 33.3834 8.15144 33.2791C8.18241 33.1747 8.19182 33.0651 8.17908 32.957V25.8928H10.0753V33.0237C10.0693 33.9575 9.85931 34.6002 9.43325 34.9155ZM17.0963 31.2773C16.7889 31.5653 16.4263 31.7864 16.031 31.9272C15.6357 32.068 15.2161 32.1254 14.798 32.0959H13.5258V34.5578H11.5995V25.8928H14.78C16.8262 25.8928 17.8644 26.9176 17.8644 28.9246C17.9264 29.7807 17.6502 30.6267 17.0963 31.2773ZM20.8048 32.4901C20.9721 32.6905 21.1871 32.8446 21.4296 32.9379C21.6721 33.0313 21.9341 33.0608 22.1909 33.0237L23.1091 32.9812V31.5259H22.347V29.822H24.9933V34.4062H24.9033C23.9555 34.5733 22.9967 34.6686 22.0349 34.6912C20.6967 34.6912 19.7666 34.3213 19.2566 33.5876C18.7465 32.8539 18.5065 31.72 18.5065 30.1737C18.5065 28.6275 18.7705 27.4815 19.2926 26.7902C19.8146 26.099 20.7208 25.7291 21.9689 25.7291C22.8074 25.7349 23.6433 25.8222 24.4652 25.9898L24.9933 26.0929L24.9393 27.6391H24.8013C22.863 27.433 21.6029 27.4087 21.1288 27.6876C20.8668 27.8666 20.6822 28.1399 20.6127 28.4517C20.4704 29.1207 20.4119 29.8052 20.4387 30.4891C20.3939 31.1765 20.5197 31.8643 20.8048 32.4901Z" fill="black"/>
</svg>
