<svg width="41" height="48" viewBox="0 0 41 48" fill="none" xmlns="http://www.w3.org/2000/svg">
<path d="M40.6689 13.8915L40.3657 13.9279L40.6689 13.8856C40.6309 13.5832 40.4943 13.3019 40.2807 13.0849L27.6618 0.44877C27.592 0.377711 27.515 0.314687 27.4313 0.26097L27.3708 0.224595C27.3061 0.186528 27.2393 0.151844 27.1707 0.121392L27.0616 0.0850165C27.0041 0.0630228 26.9453 0.0448352 26.8857 0.0304535C26.788 0.0109968 26.6886 0.00084566 26.5887 0H6.33622C5.50044 0.00338372 4.82367 0.680123 4.82031 1.51591V17.7968C4.82031 18.6342 5.49917 19.3127 6.33622 19.3127C7.17369 19.3127 7.85213 18.6342 7.85213 17.7968V3.03182H25.0728L25.0733 14.0319C25.0733 14.8664 25.7483 15.5444 26.5828 15.5478L37.6554 15.6083V44.9682H7.85266V42.6156C7.85266 41.7781 7.17422 41.0997 6.33675 41.0997C5.4997 41.0997 4.82084 41.7781 4.82084 42.6156V46.4841C4.82423 47.3199 5.50097 47.9966 6.33675 48H39.1713C40.0071 47.9966 40.6839 47.3199 40.6872 46.4841V14.1043C40.6872 14.0328 40.6809 13.9622 40.669 13.892L40.6689 13.8915ZM28.1053 12.527V5.20214L35.4907 12.5634L28.1053 12.527Z" fill="black"/>
<path d="M9.5619 27.4463C9.04842 27.3863 8.54847 27.6362 8.28876 28.0829C8.00071 28.7732 7.87636 29.5201 7.92458 30.2658C7.87594 30.995 7.99648 31.7254 8.27649 32.4005C8.55269 32.8328 9.05263 33.0688 9.56187 33.0066C10.0703 33.0709 10.5694 32.8345 10.8413 32.4005C11.1247 31.7263 11.2448 30.9951 11.1932 30.2658C11.2393 29.5205 11.1171 28.7745 10.8354 28.0829C10.5744 27.6375 10.0749 27.3875 9.5618 27.4463H9.5619Z" fill="black"/>
<path d="M18.8411 28.1534C18.7383 27.9504 18.5598 27.7956 18.3441 27.7229C18.0362 27.6273 17.7143 27.5841 17.392 27.5955H16.3672V32.853H17.392C17.8573 32.8932 18.3179 32.7346 18.6592 32.4161C18.9329 32.0274 19.0788 31.5634 19.0775 31.0884V29.9971V29.9967C19.0809 29.6245 19.0648 29.2519 19.0293 28.8809C19.012 28.6288 18.9481 28.3822 18.8411 28.1534L18.8411 28.1534Z" fill="black"/>
<path d="M32.3975 21.1328H1.78153C0.945748 21.1362 0.268982 21.8129 0.265625 22.6487V37.7656C0.265625 38.1674 0.425509 38.5531 0.709742 38.8374C0.993975 39.1216 1.37972 39.2815 1.78153 39.2815H32.3975C32.7993 39.2815 33.185 39.1216 33.4693 38.8374C33.7535 38.5531 33.9134 38.1674 33.9134 37.7656V22.6487C33.91 21.8129 33.2333 21.1362 32.3975 21.1328ZM12.3875 33.6174C11.8418 34.339 10.8957 34.7086 9.58619 34.7086C8.27623 34.7086 7.33051 34.339 6.7849 33.6174C6.23927 32.8958 5.97238 31.7982 5.97238 30.2641H5.97196C5.88779 29.0777 6.1716 27.8938 6.78447 26.8744C7.32418 26.1224 8.26996 25.7468 9.58576 25.7468C10.9016 25.7468 11.8414 26.1228 12.3871 26.8744H12.3875C12.9974 27.895 13.2808 29.0777 13.2 30.2641C13.2 31.7741 12.909 32.9017 12.3752 33.6174H12.3875ZM20.9491 32.0046C20.8645 32.4952 20.6856 32.9647 20.4217 33.3869C20.1501 33.8158 19.7424 34.1406 19.2636 34.3085C18.6575 34.5077 18.0213 34.6004 17.384 34.5813H14.4127V25.8924H17.3658C17.9804 25.8784 18.5937 25.9583 19.1846 26.1288C19.6427 26.2658 20.0457 26.5437 20.3368 26.9231C20.613 27.3067 20.8033 27.7449 20.8947 28.2085C21.019 28.8193 21.0816 29.441 21.0829 30.0641C21.0952 30.7133 21.0507 31.363 20.9492 32.0047L20.9491 32.0046ZM27.9771 27.6388H25.7396V34.5573H23.8113V27.6388H21.5492V25.8923H27.9765L27.9771 27.6388Z" fill="black"/>
</svg>
