<svg width="40" height="48" viewBox="0 0 40 48" fill="none" xmlns="http://www.w3.org/2000/svg">
<path d="M39.9845 13.9065H39.6845L39.9845 13.8641C39.9455 13.5607 39.8109 13.278 39.6005 13.0578L27.1128 0.448598C27.0438 0.377714 26.9674 0.314694 26.8848 0.260671L26.8248 0.224299C26.7608 0.184338 26.6947 0.147912 26.6267 0.11518L26.5187 0.0848695C26.4629 0.0603632 26.4045 0.0420697 26.3447 0.0303108C26.2479 0.0109374 26.1494 0.000789184 26.0507 0H6.00801C5.61013 0 5.22855 0.159672 4.94721 0.44389C4.66587 0.728108 4.50781 1.11359 4.50781 1.51553V17.8106C4.50781 18.2125 4.66587 18.598 4.94721 18.8822C5.22855 19.1664 5.61013 19.3261 6.00801 19.3261C6.40589 19.3261 6.78747 19.1664 7.06881 18.8822C7.35015 18.598 7.50821 18.2125 7.50821 17.8106V3.04925H24.5505V14.046C24.552 14.4464 24.7098 14.83 24.9895 15.1137C25.2692 15.3974 25.6483 15.5583 26.0447 15.5615L37.0021 15.6221V44.9689H7.50821V42.6229C7.50821 42.2209 7.35015 41.8355 7.06881 41.5512C6.78747 41.267 6.40589 41.1073 6.00801 41.1073C5.61013 41.1073 5.22855 41.267 4.94721 41.5512C4.66587 41.8355 4.50781 42.2209 4.50781 42.6229V46.4845C4.50781 46.8864 4.66587 47.2719 4.94721 47.5561C5.22855 47.8403 5.61013 48 6.00801 48H38.5023C38.9002 48 39.2818 47.8403 39.5631 47.5561C39.8445 47.2719 40.0025 46.8864 40.0025 46.4845V14.1127C40.0023 14.0436 39.9963 13.9746 39.9845 13.9065ZM27.5509 12.5365V5.19525L34.8598 12.5729L27.5509 12.5365Z" fill="black"/>
<path d="M17.9249 28.155C17.8225 27.9537 17.6457 27.8013 17.4328 27.7307C17.1281 27.6349 16.8096 27.5919 16.4907 27.6034H15.4766V32.8593H16.4907C16.7203 32.881 16.9518 32.8533 17.1701 32.7781C17.3883 32.7029 17.5883 32.5818 17.7569 32.4228C18.0385 32.0384 18.192 31.5734 18.1949 31.0952C18.1949 30.8345 18.1949 30.489 18.1949 30.004C18.1981 29.6316 18.1821 29.2593 18.1469 28.8886C18.1187 28.6322 18.0434 28.3835 17.9249 28.155Z" fill="black"/>
<path d="M9.49454 27.5841H8.23438V30.4273H9.49454C10.2746 30.4273 10.6587 29.9423 10.6587 28.9421C10.6981 28.5718 10.6044 28.1996 10.3947 27.8933C10.2755 27.7794 10.1334 27.6928 9.97802 27.6394C9.82268 27.5861 9.65776 27.5672 9.49454 27.5841Z" fill="black"/>
<path d="M31.7982 21.1484H1.5002C1.10232 21.1484 0.72074 21.3081 0.439398 21.5923C0.158056 21.8765 0 22.262 0 22.664V37.7769C0 38.1788 0.158056 38.5643 0.439398 38.8485C0.72074 39.1327 1.10232 39.2924 1.5002 39.2924H31.7982C32.1961 39.2924 32.5777 39.1327 32.859 38.8485C33.1404 38.5643 33.2984 38.1788 33.2984 37.7769V22.664C33.2984 22.262 33.1404 21.8765 32.859 21.5923C32.5777 21.3081 32.1961 21.1484 31.7982 21.1484ZM11.8036 31.2904C11.4975 31.5784 11.136 31.7996 10.7417 31.9404C10.3473 32.0812 9.92849 32.1385 9.51126 32.1088H8.23909V34.57H6.33084V25.9133H9.51126C11.5575 25.9133 12.5897 26.9378 12.5897 28.9443C12.6445 29.8005 12.3619 30.6439 11.8036 31.2904ZM20.0007 32.0178C19.917 32.5084 19.7397 32.9779 19.4786 33.4C19.2039 33.8152 18.8041 34.1298 18.3384 34.2972C17.7387 34.4964 17.1092 34.5888 16.4782 34.57H13.5738V25.9133H16.4962C17.1047 25.8985 17.7119 25.9783 18.2964 26.1497C18.7508 26.2845 19.1504 26.5628 19.4366 26.9438C19.7132 27.3244 19.9056 27.7606 20.0007 28.223C20.1133 28.8427 20.1635 29.4723 20.1507 30.1022C20.1585 30.744 20.1083 31.3852 20.0007 32.0178ZM26.9736 27.6107H23.3311V29.884H26.3315V31.5874H23.3311V34.57H21.4228V25.9133H26.9736V27.6107Z" fill="black"/>
</svg>
