<svg width="42" height="48" viewBox="0 0 42 48" fill="none" xmlns="http://www.w3.org/2000/svg">
<path d="M41.2471 13.8915L40.9438 13.9279L41.2471 13.8856C41.209 13.5832 41.0724 13.3019 40.8588 13.0849L28.2399 0.44877C28.1701 0.377711 28.0932 0.314687 28.0094 0.26097L27.9489 0.224595C27.8842 0.186528 27.8174 0.151844 27.7489 0.121392L27.6397 0.0850165C27.5822 0.0630228 27.5234 0.0448352 27.4638 0.0304535C27.3661 0.0109968 27.2667 0.00084566 27.1669 0H6.91435C6.07856 0.00338372 5.40179 0.680123 5.39844 1.51591V17.7968C5.39844 18.6342 6.07729 19.3127 6.91435 19.3127C7.75182 19.3127 8.43025 18.6342 8.43025 17.7968V3.03182H25.651L25.6514 14.0319C25.6514 14.8664 26.3264 15.5444 27.1609 15.5478L38.2335 15.6083V44.9682H8.43078V42.6156C8.43078 41.7781 7.75235 41.0997 6.91488 41.0997C6.07782 41.0997 5.39897 41.7781 5.39897 42.6156V46.4841C5.40235 47.3199 6.07909 47.9966 6.91488 48H39.7494C40.5852 47.9966 41.262 47.3199 41.2653 46.4841V14.1043C41.2653 14.0328 41.259 13.9622 41.2472 13.892L41.2471 13.8915ZM28.6834 12.527V5.20214L36.0688 12.5634L28.6834 12.527Z" fill="black"/>
<path d="M9.59974 27.567H8.32031V30.4169H9.59389C10.3882 30.4169 10.7701 29.9258 10.7701 28.9314C10.8044 28.5567 10.7033 28.1823 10.485 27.8761C10.2482 27.6507 9.92588 27.5382 9.59978 27.5669L9.59974 27.567Z" fill="black"/>
<path d="M32.9756 21.1328H2.35966C1.52387 21.1362 0.847107 21.8129 0.84375 22.6487V37.7656C0.84375 38.1674 1.00363 38.5531 1.28787 38.8374C1.5721 39.1216 1.95785 39.2815 2.35966 39.2815H32.9756C33.3774 39.2815 33.7632 39.1216 34.0474 38.8374C34.3316 38.5531 34.4915 38.1674 34.4915 37.7656V22.6487C34.4881 21.8129 33.8114 21.1362 32.9756 21.1328ZM11.9586 31.2773C11.3309 31.8593 10.4901 32.1558 9.63613 32.0961H8.32032V34.5578H6.39836V25.8929H9.61209C11.68 25.8929 12.7289 26.9178 12.7289 28.9247C12.7932 29.78 12.5162 30.6259 11.9587 31.2773L11.9586 31.2773ZM20.7326 34.5578H17.7008V34.4851L15.6692 27.8148L15.6696 34.5577H13.7231V25.8929H16.8095L18.7865 32.6477L18.786 25.8929H20.7144L20.7326 34.5578ZM24.2982 32.4899C24.6417 32.8976 25.1712 33.099 25.6987 33.0237L26.6263 32.9814L26.6267 31.526H25.8565V29.8223H28.5304V34.4064H28.4395C27.4798 34.5735 26.5091 34.6687 25.535 34.6911C24.1886 34.6911 23.2489 34.3214 22.7337 33.5876C22.2181 32.8538 21.9757 31.7202 21.9757 30.1739C21.9757 28.6276 22.2426 27.4818 22.7701 26.7906C23.2975 26.0995 24.2132 25.7294 25.4746 25.7294C26.3218 25.7349 27.1664 25.8224 27.9971 25.9899L28.5309 26.0931L28.4759 27.6395H28.3609C26.4021 27.4335 25.129 27.409 24.6439 27.6881V27.6877C24.3825 27.8691 24.1989 28.1415 24.1283 28.452C23.9845 29.1207 23.9257 29.8055 23.9528 30.4894C23.8965 31.1746 24.0154 31.8632 24.2983 32.49L24.2982 32.4899Z" fill="black"/>
</svg>
