<svg width="41" height="48" viewBox="0 0 41 48" fill="none" xmlns="http://www.w3.org/2000/svg">
<path d="M40.4033 13.8915L40.1 13.9279L40.4033 13.8856C40.3652 13.5832 40.2286 13.3019 40.015 13.0849L27.3962 0.44877C27.3264 0.377711 27.2494 0.314687 27.1657 0.26097L27.1052 0.224595C27.0405 0.186528 26.9737 0.151844 26.9051 0.121392L26.796 0.0850165C26.7385 0.0630228 26.6797 0.0448352 26.62 0.0304535C26.5223 0.0109968 26.4229 0.00084566 26.3231 0H6.0706C5.23481 0.00338372 4.55804 0.680123 4.55469 1.51591V17.7968C4.55469 18.6342 5.23354 19.3127 6.0706 19.3127C6.90807 19.3127 7.5865 18.6342 7.5865 17.7968V3.03182H24.8072L24.8076 14.0319C24.8076 14.8664 25.4827 15.5444 26.3172 15.5478L37.3898 15.6083V44.9682H7.58703V42.6156C7.58703 41.7781 6.9086 41.0997 6.07113 41.0997C5.23407 41.0997 4.55522 41.7781 4.55522 42.6156V46.4841C4.5586 47.3199 5.23534 47.9966 6.07113 48H38.9057C39.7415 47.9966 40.4182 47.3199 40.4216 46.4841V14.1043C40.4216 14.0328 40.4152 13.9622 40.4034 13.892L40.4033 13.8915ZM27.8397 12.527V5.20214L35.2251 12.5634L27.8397 12.527Z" fill="black"/>
<path d="M24.4007 27.5732H22.9453L22.9457 30.0653H24.4553C24.7674 30.0903 25.0728 29.9668 25.28 29.732C25.4742 29.4672 25.5706 29.1437 25.5529 28.8163C25.5706 28.4915 25.467 28.1713 25.2619 27.9188C25.0436 27.6768 24.726 27.5491 24.4007 27.5732V27.5732Z" fill="black"/>
<path d="M9.29471 27.5731H7.85156V30.0652H9.33748C9.64963 30.091 9.95543 29.9671 10.1618 29.7319C10.356 29.4671 10.4524 29.1436 10.4347 28.8162C10.4528 28.4914 10.3488 28.1712 10.1437 27.9187C9.93047 27.6772 9.61621 27.5494 9.29476 27.5731L9.29471 27.5731Z" fill="black"/>
<path d="M16.25 27.5234L15.4375 31.3254H17.4868L16.6684 27.5234H16.25Z" fill="black"/>
<path d="M32.1318 21.1328H1.51591C0.680123 21.1362 0.00335665 21.8129 0 22.6487V37.7656C0 38.1674 0.159884 38.5531 0.444117 38.8374C0.72835 39.1216 1.1141 39.2815 1.51591 39.2815H32.1318C32.5337 39.2815 32.9194 39.1216 33.2036 38.8374C33.4879 38.5531 33.6477 38.1674 33.6477 37.7656V22.6487C33.6444 21.8129 32.9676 21.1362 32.1318 21.1328ZM10.3028 34.5573V34.4904L9.34474 31.7255H7.85298V34.5572H5.92463V25.8924H9.29612C11.3458 25.8924 12.3825 26.8686 12.3825 28.7847C12.4447 29.7676 11.9837 30.71 11.1699 31.2649L12.3825 34.5572L10.3028 34.5573ZM18.1856 34.5573L17.846 33.0291H15.0688L14.7537 34.5573H12.7949L14.7537 25.8924H18.1798V25.9775L20.1139 34.5573L18.1856 34.5573ZM25.3891 34.5573V34.4904L24.4311 31.7255H22.9456V34.5572H21.0172V25.8924H24.4005C26.4502 25.8924 27.4929 26.8686 27.4929 28.7847H27.4933C27.5555 29.7723 27.0923 30.7197 26.2743 31.2768L27.4869 34.5692L25.3891 34.5573Z" fill="black"/>
</svg>
