<svg width="20" height="20" viewBox="0 0 20 20" fill="none" xmlns="http://www.w3.org/2000/svg">
<path d="M6 2C5.46957 2 4.96086 2.21071 4.58579 2.58579C4.21071 2.96086 4 3.46957 4 4V9.126C4.32 9.043 4.655 9 5 9V4C5 3.73478 5.10536 3.48043 5.29289 3.29289C5.48043 3.10536 5.73478 3 6 3H10V6.5C10 6.89782 10.158 7.27936 10.4393 7.56066C10.7206 7.84196 11.1022 8 11.5 8H15V16C15 16.2652 14.8946 16.5196 14.7071 16.7071C14.5196 16.8946 14.2652 17 14 17H8V18H14C14.5304 18 15.0391 17.7893 15.4142 17.4142C15.7893 17.0391 16 16.5304 16 16V7.413C15.9997 7.01531 15.8414 6.63404 15.56 6.353L11.646 2.438C11.3646 2.15735 10.9834 1.99982 10.586 2H6ZM14.793 7H11.5C11.3674 7 11.2402 6.94732 11.1464 6.85355C11.0527 6.75979 11 6.63261 11 6.5V3.207L14.793 7ZM8 13C8 13.7956 7.68393 14.5587 7.12132 15.1213C6.55871 15.6839 5.79565 16 5 16C4.20435 16 3.44129 15.6839 2.87868 15.1213C2.31607 14.5587 2 13.7956 2 13C2 12.2044 2.31607 11.4413 2.87868 10.8787C3.44129 10.3161 4.20435 10 5 10C5.79565 10 6.55871 10.3161 7.12132 10.8787C7.68393 11.4413 8 12.2044 8 13ZM7 16.464C6.39226 16.8159 5.70227 17.0008 5 17C4.29782 17.0011 3.60784 16.8166 3 16.465V18.751C2.99996 18.7952 3.01163 18.8386 3.03383 18.8768C3.05604 18.9151 3.08798 18.9467 3.1264 18.9686C3.16482 18.9904 3.20835 19.0017 3.25255 19.0012C3.29674 19.0008 3.34003 18.9886 3.378 18.966L5 17.998L6.622 18.964C6.65989 18.9866 6.70309 18.9987 6.74721 18.9992C6.79132 18.9997 6.83478 18.9885 6.87317 18.9668C6.91156 18.9451 6.94351 18.9136 6.96579 18.8755C6.98807 18.8374 6.99987 18.7941 7 18.75V16.464Z" fill="#121212"/>
</svg>
