<svg width="40" height="48" viewBox="0 0 40 48" fill="none" xmlns="http://www.w3.org/2000/svg">
<path d="M39.9806 13.9065H39.6806L39.9806 13.8641C39.9416 13.5607 39.807 13.278 39.5965 13.0578L27.1075 0.448598C27.0385 0.377714 26.962 0.314694 26.8794 0.260671L26.8194 0.224299C26.7554 0.184338 26.6893 0.147912 26.6214 0.11518L26.5134 0.0848695C26.4575 0.0603632 26.3991 0.0420697 26.3393 0.0303108C26.2424 0.0109374 26.144 0.000789184 26.0452 0H6.00036C5.60244 0 5.22082 0.159672 4.93945 0.44389C4.65807 0.728108 4.5 1.11359 4.5 1.51553V17.8106C4.5 18.2125 4.65807 18.598 4.93945 18.8822C5.22082 19.1664 5.60244 19.3261 6.00036 19.3261C6.39829 19.3261 6.77991 19.1664 7.06128 18.8822C7.34266 18.598 7.50073 18.2125 7.50073 17.8106V3.04925H24.5449V14.046C24.5464 14.4464 24.7042 14.83 24.9839 15.1137C25.2637 15.3974 25.6428 15.5583 26.0392 15.5615L36.9979 15.6221V44.9689H7.50073V42.6229C7.50073 42.2209 7.34266 41.8355 7.06128 41.5512C6.77991 41.267 6.39829 41.1073 6.00036 41.1073C5.60244 41.1073 5.22082 41.267 4.93945 41.5512C4.65807 41.8355 4.5 42.2209 4.5 42.6229V46.4845C4.5 46.8864 4.65807 47.2719 4.93945 47.5561C5.22082 47.8403 5.60244 48 6.00036 48H38.4983C38.8962 48 39.2778 47.8403 39.5592 47.5561C39.8406 47.2719 39.9986 46.8864 39.9986 46.4845V14.1127C39.9985 14.0436 39.9924 13.9746 39.9806 13.9065ZM27.5456 12.5365V5.19525L34.8554 12.5729L27.5456 12.5365Z" fill="black"/>
<path d="M31.8017 21.1484H1.50037C1.10244 21.1484 0.72082 21.3081 0.439447 21.5923C0.158074 21.8765 0 22.262 0 22.664V37.7769C0 38.1788 0.158074 38.5643 0.439447 38.8485C0.72082 39.1327 1.10244 39.2924 1.50037 39.2924H31.8017C32.1997 39.2924 32.5813 39.1327 32.8627 38.8485C33.144 38.5643 33.3021 38.1788 33.3021 37.7769V22.664C33.3021 22.262 33.144 21.8765 32.8627 21.5923C32.5813 21.3081 32.1997 21.1484 31.8017 21.1484ZM11.5348 34.57V34.5154L10.0765 31.7693L8.55208 34.57H6.51759L8.99019 30.4114L6.52359 25.9133H8.6481L8.67811 25.9739L10.1365 28.8958L11.6548 25.9133H13.6593L11.1867 30.3326L13.6653 34.5761L11.5348 34.57ZM19.3367 34.57H14.3975V25.9133H16.3V32.8423H19.3667L19.3367 34.57ZM24.8701 34.0123C24.2598 34.5029 23.4948 34.7547 22.7155 34.7216C21.9072 34.7039 21.1027 34.6023 20.3149 34.4185L19.7808 34.3154L19.9789 32.7817H20.0809C20.9119 32.9069 21.7496 32.9818 22.5895 33.006C23.3997 33.006 23.7898 32.6786 23.7898 32.0178C23.803 31.9213 23.793 31.823 23.7607 31.7312C23.7283 31.6393 23.6744 31.5568 23.6037 31.4904C23.229 31.2751 22.8244 31.1177 22.4035 31.0237C21.6505 30.8539 20.9462 30.5117 20.3449 30.0234C20.1376 29.8054 19.9772 29.5463 19.8739 29.2625C19.7706 28.9787 19.7266 28.6763 19.7448 28.3745C19.7182 28.0056 19.7771 27.6355 19.9167 27.2935C20.0562 26.9515 20.2727 26.6471 20.549 26.4043C21.1725 25.9459 21.9335 25.719 22.7035 25.7617C23.4873 25.7767 24.2684 25.8599 25.0381 26.0103L25.5782 26.1133L25.4042 27.6713H25.2962C24.1499 27.544 23.3277 27.4773 22.8596 27.4773C21.6233 27.4773 21.6233 28.0835 21.6233 28.2654C21.6231 28.3684 21.6488 28.4698 21.6982 28.5599C21.7476 28.6501 21.8188 28.7261 21.9053 28.7807C22.3965 29.0331 22.9111 29.2362 23.4417 29.3869C24.0899 29.5574 24.6912 29.8745 25.2001 30.3144C25.3886 30.536 25.5318 30.7931 25.6215 31.0709C25.7111 31.3487 25.7453 31.6417 25.7223 31.933C25.7472 32.3195 25.6863 32.7068 25.544 33.0666C25.4018 33.4263 25.1818 33.7494 24.9001 34.0123H24.8701Z" fill="black"/>
</svg>
