<svg width="40" height="48" viewBox="0 0 40 48" fill="none" xmlns="http://www.w3.org/2000/svg">
<path d="M39.9845 13.9065H39.6845L39.9845 13.8641C39.9455 13.5607 39.8109 13.278 39.6005 13.0578L27.1128 0.448598C27.0438 0.377714 26.9674 0.314694 26.8848 0.260671L26.8248 0.224299C26.7608 0.184338 26.6947 0.147912 26.6267 0.11518L26.5187 0.0848695C26.4629 0.0603632 26.4045 0.0420697 26.3447 0.0303108C26.2479 0.0109374 26.1494 0.000789184 26.0507 0H6.00801C5.61013 0 5.22855 0.159672 4.94721 0.44389C4.66587 0.728108 4.50781 1.11359 4.50781 1.51553V17.8106C4.50781 18.2125 4.66587 18.598 4.94721 18.8822C5.22855 19.1664 5.61013 19.3261 6.00801 19.3261C6.40589 19.3261 6.78747 19.1664 7.06881 18.8822C7.35015 18.598 7.50821 18.2125 7.50821 17.8106V3.04925H24.5505V14.046C24.552 14.4464 24.7098 14.83 24.9895 15.1137C25.2692 15.3974 25.6483 15.5583 26.0447 15.5615L37.0021 15.6221V44.9689H7.50821V42.6229C7.50821 42.2209 7.35015 41.8355 7.06881 41.5512C6.78747 41.267 6.40589 41.1073 6.00801 41.1073C5.61013 41.1073 5.22855 41.267 4.94721 41.5512C4.66587 41.8355 4.50781 42.2209 4.50781 42.6229V46.4845C4.50781 46.8864 4.66587 47.2719 4.94721 47.5561C5.22855 47.8403 5.61013 48 6.00801 48H38.5023C38.9002 48 39.2818 47.8403 39.5631 47.5561C39.8445 47.2719 40.0025 46.8864 40.0025 46.4845V14.1127C40.0023 14.0436 39.9963 13.9746 39.9845 13.9065ZM27.5509 12.5365V5.19525L34.8598 12.5729L27.5509 12.5365Z" fill="black"/>
<path d="M31.7982 21.1484H1.5002C1.10232 21.1484 0.72074 21.3081 0.439398 21.5923C0.158056 21.8765 0 22.262 0 22.664V37.7769C0 38.1788 0.158056 38.5643 0.439398 38.8485C0.72074 39.1327 1.10232 39.2924 1.5002 39.2924H31.7982C32.1961 39.2924 32.5777 39.1327 32.859 38.8485C33.1404 38.5643 33.2984 38.1788 33.2984 37.7769V22.664C33.2984 22.262 33.1404 21.8765 32.859 21.5923C32.5777 21.3081 32.1961 21.1484 31.7982 21.1484ZM8.06507 34.57L8.03507 34.5155L6.57687 31.7693L5.05267 34.57H3.0484L5.52073 30.4114L3.05441 25.9133H5.17869L5.20869 25.9739L6.66689 28.8958L8.18509 25.9133H10.1894L7.71703 30.3326L10.1954 34.5761L8.06507 34.57ZM15.8661 34.57H10.9275V25.9133H12.8297V32.8423H15.8961L15.8661 34.57ZM21.3988 34.0123C20.7886 34.5029 20.0237 34.7547 19.2446 34.7216C18.4363 34.7039 17.6319 34.6024 16.8442 34.4185L16.3102 34.3154L16.5082 32.7817H16.6102C17.4411 32.9069 18.2787 32.9818 19.1185 33.006C19.9286 33.006 20.3187 32.6786 20.3187 32.0178C20.3256 31.913 20.3055 31.8082 20.2603 31.7136C20.215 31.619 20.1463 31.538 20.0607 31.4783C19.6972 31.2663 19.305 31.109 18.8965 31.0115C18.1436 30.8418 17.4394 30.4996 16.8382 30.0113C16.6309 29.7932 16.4705 29.5341 16.3672 29.2503C16.2639 28.9665 16.22 28.6642 16.2382 28.3624C16.2116 27.9935 16.2704 27.6234 16.41 27.2814C16.5496 26.9394 16.766 26.635 17.0423 26.3922C17.6653 25.9329 18.4265 25.7058 19.1966 25.7496C19.9803 25.7646 20.7613 25.8478 21.5309 25.9981L22.0709 26.1012L21.9149 27.6592H21.8069C20.6607 27.5319 19.8386 27.4652 19.3706 27.4652C18.1344 27.4652 18.1344 28.0714 18.1344 28.2533C18.1342 28.3563 18.16 28.4577 18.2093 28.5478C18.2587 28.638 18.33 28.7139 18.4164 28.7685C18.9076 29.021 19.4221 29.2241 19.9527 29.3748C20.6008 29.5453 21.202 29.8624 21.7109 30.3023C21.8994 30.5239 22.0426 30.781 22.1322 31.0588C22.2218 31.3366 22.256 31.6296 22.233 31.9209C22.262 32.308 22.2048 32.6968 22.0656 33.0587C21.9265 33.4206 21.7089 33.7464 21.4288 34.0123H21.3988ZM27.4716 34.57V34.5155L26.0015 31.7693L24.4773 34.57H22.479L24.9573 30.4114L22.491 25.9133H24.6153L24.6453 25.9739L26.1035 28.8958L27.6217 25.9133H29.6019L27.1296 30.3326L29.6079 34.5761L27.4716 34.57Z" fill="black"/>
</svg>
