<svg width="41" height="48" viewBox="0 0 41 48" fill="none" xmlns="http://www.w3.org/2000/svg">
<path d="M40.8252 13.8915L40.5219 13.9279L40.8252 13.8856C40.7871 13.5832 40.6505 13.3019 40.4369 13.0849L27.8181 0.44877C27.7483 0.377711 27.6713 0.314687 27.5876 0.26097L27.5271 0.224595C27.4624 0.186528 27.3955 0.151844 27.327 0.121392L27.2179 0.0850165C27.1604 0.0630228 27.1016 0.0448352 27.0419 0.0304535C26.9442 0.0109968 26.8448 0.00084566 26.745 0H6.49247C5.65669 0.00338372 4.97992 0.680123 4.97656 1.51591V17.7968C4.97656 18.6342 5.65542 19.3127 6.49247 19.3127C7.32994 19.3127 8.00838 18.6342 8.00838 17.7968V3.03182H25.2291L25.2295 14.0319C25.2295 14.8664 25.9046 15.5444 26.739 15.5478L37.8117 15.6083V44.9682H8.00891V42.6156C8.00891 41.7781 7.33048 41.0997 6.493 41.0997C5.65595 41.0997 4.97709 41.7781 4.97709 42.6156V46.4841C4.98048 47.3199 5.65722 47.9966 6.493 48H39.3276C40.1634 47.9966 40.8401 47.3199 40.8435 46.4841V14.1043C40.8435 14.0328 40.8371 13.9622 40.8253 13.892L40.8252 13.8915ZM28.2616 12.527V5.20214L35.647 12.5634L28.2616 12.527Z" fill="black"/>
<path d="M32.5537 21.1328H1.93778C1.102 21.1362 0.425232 21.8129 0.421875 22.6487V37.7656C0.421875 38.1674 0.581759 38.5531 0.865992 38.8374C1.15022 39.1216 1.53597 39.2815 1.93778 39.2815H32.5537C32.9555 39.2815 33.3413 39.1216 33.6255 38.8374C33.9097 38.5531 34.0696 38.1674 34.0696 37.7656V22.6487C34.0662 21.8129 33.3895 21.1362 32.5537 21.1328ZM14.3931 27.5238L10.8762 32.7385V32.8235H14.4055V34.5272H8.59056V32.9449L12.1439 27.6816V27.5965H8.59056V25.8929H14.3937L14.3931 27.5238ZM17.5399 34.5577H15.612V25.8929H17.5404L17.5399 34.5577ZM24.7012 31.2772C24.0735 31.8592 23.233 32.1557 22.3792 32.096H21.0938V34.5576H19.1654V25.8928H22.3792C24.4471 25.8928 25.496 26.9177 25.496 28.9246H25.4956C25.5535 29.7833 25.2676 30.6296 24.7012 31.2772L24.7012 31.2772Z" fill="black"/>
<path d="M22.3673 27.5675H21.0938V30.4174H22.3673C23.1617 30.4174 23.5436 29.9322 23.5436 28.9319C23.5782 28.5571 23.4767 28.1828 23.2585 27.8766C23.0204 27.6495 22.6951 27.537 22.3673 27.5674L22.3673 27.5675Z" fill="black"/>
</svg>
