<svg width="24" height="24" viewBox="0 0 24 24"  fill="white" xmlns="http://www.w3.org/2000/svg">
<path d="M19.5 3.1875H17.0625V2.25C17.0625 2.10082 17.0032 1.95774 16.8977 1.85225C16.7923 1.74676 16.6492 1.6875 16.5 1.6875C16.3508 1.6875 16.2077 1.74676 16.1023 1.85225C15.9968 1.95774 15.9375 2.10082 15.9375 2.25V3.1875H8.0625V2.25C8.0625 2.10082 8.00324 1.95774 7.89775 1.85225C7.79226 1.74676 7.64918 1.6875 7.5 1.6875C7.35082 1.6875 7.20774 1.74676 7.10225 1.85225C6.99676 1.95774 6.9375 2.10082 6.9375 2.25V3.1875H4.5C4.15203 3.1879 3.81842 3.32631 3.57236 3.57236C3.32631 3.81842 3.1879 4.15203 3.1875 4.5V19.5C3.1879 19.848 3.32631 20.1816 3.57236 20.4276C3.81842 20.6737 4.15203 20.8121 4.5 20.8125H19.5C19.848 20.8121 20.1816 20.6737 20.4276 20.4276C20.6737 20.1816 20.8121 19.848 20.8125 19.5V4.5C20.8121 4.15203 20.6737 3.81842 20.4276 3.57236C20.1816 3.32631 19.848 3.1879 19.5 3.1875ZM4.5 4.3125H6.9375V5.25C6.9375 5.39918 6.99676 5.54226 7.10225 5.64775C7.20774 5.75324 7.35082 5.8125 7.5 5.8125C7.64918 5.8125 7.79226 5.75324 7.89775 5.64775C8.00324 5.54226 8.0625 5.39918 8.0625 5.25V4.3125H15.9375V5.25C15.9375 5.39918 15.9968 5.54226 16.1023 5.64775C16.2077 5.75324 16.3508 5.8125 16.5 5.8125C16.6492 5.8125 16.7923 5.75324 16.8977 5.64775C17.0032 5.54226 17.0625 5.39918 17.0625 5.25V4.3125H19.5C19.5497 4.31257 19.5974 4.33235 19.6325 4.3675C19.6676 4.40265 19.6874 4.45029 19.6875 4.5V7.6875H4.3125V4.5C4.31257 4.45029 4.33235 4.40265 4.3675 4.3675C4.40265 4.33235 4.45029 4.31257 4.5 4.3125ZM19.5 19.6875H4.5C4.45029 19.6874 4.40265 19.6676 4.3675 19.6325C4.33235 19.5974 4.31257 19.5497 4.3125 19.5V8.8125H19.6875V19.5C19.6874 19.5497 19.6676 19.5974 19.6325 19.6325C19.5974 19.6676 19.5497 19.6874 19.5 19.6875Z"/>
</svg>
