<svg width="180" height="67" viewBox="0 0 180 67" fill="none" xmlns="http://www.w3.org/2000/svg">
<path d="M49.2192 0.046875H16.0282C16.5406 10.3167 9.25832 16.7399 0 18.2277C2.23224 41.3077 14.3083 58.3999 35.2402 67.0004C51.8173 60.1417 65.284 47.0051 69.3825 28.5339C73.1152 11.6231 64.9181 0.046875 49.2192 0.046875Z" fill="white"/>
<path d="M49.2192 0.046875H16.0282C16.5406 10.3167 9.25832 16.7399 0 18.2277C2.23224 41.3077 14.3083 58.3999 35.2402 67.0004C51.8173 60.1417 65.284 47.0051 69.3825 28.5339C73.1152 11.6231 64.9181 0.046875 49.2192 0.046875ZM66.9307 27.9895C63.3811 44.3197 51.488 57.3475 35.2768 64.2787C16.1746 56.1862 5.19637 40.1827 2.78116 20.1874C11.3076 18.01 17.9311 11.6957 18.5532 2.51454H49.3655C64.4423 2.44196 70.0778 14.1634 66.9307 27.9895Z" fill="#008AD1"/>
<path d="M33.4062 39.9307H37.0657L35.3457 31.7656L33.4062 39.9307Z" fill="#008AD1"/>
<path d="M49.3641 4.766H20.5645C19.2105 13.0762 13.209 19.1002 5.30469 21.7856C8.01266 40.1842 18.5152 54.4822 35.2753 61.8852C50.0594 55.2442 61.2572 43.414 64.7336 27.5556C67.4782 15.181 62.9771 4.69342 49.3641 4.766ZM10.1717 23.6001H27.9199L36.3365 14.3101L32.7503 13.0399C32.3478 12.8948 32.3844 12.4956 32.7503 12.4956H36.6659L37.8735 8.4675C37.9467 8.21347 38.3126 8.28605 38.3126 8.4675L38.7152 12.4956H42.4844C42.7771 12.4956 42.8869 12.8585 42.3746 13.0399L38.3492 14.3826L32.0916 23.6001H34.1775C33.9945 24.3259 33.7384 25.2331 33.4822 26.2855L30.1887 26.5032L29.8228 27.0476C28.8713 28.1725 26.6025 31.0031 25.2119 31.3297C24.3337 31.5111 23.492 30.6765 23.8213 29.5878C24.1507 28.5354 24.9923 27.6282 25.5047 26.7209L10.0619 24.7613C9.40323 24.7613 9.47642 23.6001 10.1717 23.6001ZM54.6336 36.6279C53.4626 36.6279 53.426 37.0997 53.426 38.2609V43.7043C53.426 44.9018 53.4992 45.3373 54.6336 45.3373V46.426H49.8398V45.3373C50.9376 45.3373 51.084 44.9381 51.084 43.7043V39.4584L47.205 44.176V44.3575C47.205 45.0107 47.5709 45.301 48.4492 45.301V46.3897H36.5195V45.301C37.3978 45.301 37.9467 45.2284 37.9467 44.3938C37.9467 43.8857 37.7271 42.5793 37.3612 41.1277H33.0065L32.4576 43.3051C32.055 44.7567 32.1648 45.301 33.7384 45.301V46.3897H23.8213V45.301C24.9923 45.301 25.1021 44.9018 25.1021 43.668V38.6238L22.0648 46.0268L19.0275 38.3698V43.7769C19.0275 44.8292 19.1373 45.301 20.3083 45.301V46.3897H16.6123V45.301C17.8565 45.301 17.8931 44.5752 17.8931 43.5228V38.2246C17.8931 37.2811 17.8931 36.5916 16.6855 36.5916V35.5029H20.601L22.7235 41.0915L24.846 35.5029H28.6152V36.5916C27.4442 36.5916 27.4076 37.0634 27.4076 38.2246V43.668C27.4076 44.7204 27.5173 45.0107 27.8467 45.1558C28.542 45.4099 29.9326 45.3373 30.3351 44.5752C30.6278 44.0672 30.884 43.3051 31.2134 42.1801L36.3365 22.3662L40.9474 41.781C41.4597 43.8857 41.7159 44.4301 42.1916 44.8655C42.6673 45.2647 44.1677 45.555 44.7166 44.9744C44.8264 44.8655 44.8996 44.6115 44.8996 43.7043V38.2609C44.8996 37.0271 44.8264 36.6279 43.6554 36.6279V35.5392H48.4858V36.6279C47.3148 36.6279 47.2416 37.1359 47.2416 38.2609V42.543L51.1206 37.8254V37.6803C51.1206 37.1722 50.7912 36.6642 49.8764 36.6642V35.5755H54.6702L54.6336 36.6279ZM54.1579 24.7613L38.8981 25.8863L38.3492 23.6001H54.1579C54.963 23.6001 54.9996 24.725 54.1579 24.7613Z" fill="#008AD1"/>
<path d="M81.8568 13.3585C80.4859 13.3585 79.4229 13.0137 78.6679 12.3241C77.9229 11.6247 77.5255 10.6346 77.4758 9.35391C77.4659 9.08792 77.4609 8.65446 77.4609 8.05352C77.4609 7.44273 77.4659 6.99942 77.4758 6.72358C77.5255 5.4626 77.9278 4.48239 78.6828 3.78294C79.4378 3.07364 80.4958 2.71899 81.8568 2.71899C82.741 2.71899 83.5109 2.87168 84.1665 3.17708C84.8222 3.47262 85.3288 3.88145 85.6865 4.40358C86.054 4.9257 86.2477 5.51186 86.2676 6.16205V6.19161C86.2676 6.27042 86.2328 6.33938 86.1633 6.39849C86.1037 6.44774 86.0342 6.47237 85.9547 6.47237H84.5093C84.39 6.47237 84.3006 6.44774 84.241 6.39849C84.1814 6.33938 84.1318 6.24086 84.092 6.10294C83.943 5.49216 83.6847 5.06362 83.3171 4.81734C82.9496 4.5612 82.4628 4.43313 81.8568 4.43313C80.4362 4.43313 79.6961 5.22124 79.6365 6.79747C79.6266 7.06346 79.6216 7.47229 79.6216 8.02397C79.6216 8.57565 79.6266 8.99433 79.6365 9.28002C79.6961 10.8562 80.4362 11.6444 81.8568 11.6444C82.4529 11.6444 82.9347 11.5212 83.3022 11.2749C83.6797 11.0188 83.943 10.5853 84.092 9.97454C84.1318 9.83663 84.1814 9.74304 84.241 9.69378C84.3006 9.63467 84.39 9.60512 84.5093 9.60512H85.9547C86.0441 9.60512 86.1186 9.63467 86.1782 9.69378C86.2477 9.75289 86.2775 9.82677 86.2676 9.91544C86.2477 10.5656 86.054 11.1518 85.6865 11.6739C85.3288 12.196 84.8222 12.6098 84.1665 12.9152C83.5109 13.2107 82.741 13.3585 81.8568 13.3585Z" fill="#008AD1"/>
<path d="M90.6869 13.2107C90.5876 13.2107 90.5031 13.1763 90.4336 13.1073C90.364 13.0383 90.3293 12.9546 90.3293 12.8561V4.7139H87.5725C87.4732 4.7139 87.3887 4.67942 87.3192 4.61046C87.2497 4.5415 87.2149 4.45283 87.2149 4.34447V3.23619C87.2149 3.12782 87.2447 3.03916 87.3043 2.9702C87.3738 2.90124 87.4632 2.86676 87.5725 2.86676H95.1871C95.2964 2.86676 95.3858 2.90124 95.4553 2.9702C95.5248 3.03916 95.5596 3.12782 95.5596 3.23619V4.34447C95.5596 4.45283 95.5248 4.5415 95.4553 4.61046C95.3858 4.67942 95.2964 4.7139 95.1871 4.7139H92.4452V12.8561C92.4452 12.9546 92.4105 13.0383 92.3409 13.1073C92.2813 13.1763 92.1969 13.2107 92.0876 13.2107H90.6869Z" fill="#008AD1"/>
<path d="M104.85 2.86676C104.939 2.86676 105.014 2.89631 105.073 2.95542C105.133 3.01453 105.163 3.08349 105.163 3.1623C105.163 3.26081 105.143 3.34455 105.103 3.41351L102.108 10.1962C101.76 10.9843 101.442 11.5852 101.154 11.999C100.866 12.4128 100.513 12.7182 100.096 12.9152C99.6889 13.1122 99.1525 13.2107 98.4869 13.2107H97.7865C97.6872 13.2107 97.6028 13.1763 97.5332 13.1073C97.4637 13.0383 97.4289 12.9546 97.4289 12.8561V11.733C97.4289 11.6345 97.4637 11.5508 97.5332 11.4818C97.6028 11.4128 97.6872 11.3784 97.7865 11.3784H98.3379C98.6757 11.3784 98.9588 11.2897 99.1873 11.1124C99.4257 10.9351 99.6542 10.6395 99.8727 10.2258L96.1027 3.33963C96.0828 3.26081 96.0729 3.21156 96.0729 3.19185C96.0729 3.10319 96.1027 3.02931 96.1623 2.9702C96.2318 2.90124 96.3113 2.86676 96.4007 2.86676H97.8909C98.0597 2.86676 98.1889 2.96035 98.2783 3.14752L100.901 7.99441L103.032 3.14752C103.101 2.96035 103.24 2.86676 103.449 2.86676H104.85Z" fill="#008AD1"/>
<path d="M106.684 13.2107C106.585 13.2107 106.5 13.1763 106.431 13.1073C106.361 13.0383 106.326 12.9546 106.326 12.8561V3.23619C106.326 3.12782 106.356 3.03916 106.416 2.9702C106.485 2.90124 106.575 2.86676 106.684 2.86676H114.522C114.631 2.86676 114.716 2.90124 114.775 2.9702C114.845 3.03916 114.88 3.12782 114.88 3.23619V12.8561C114.88 12.9546 114.845 13.0383 114.775 13.1073C114.716 13.1763 114.631 13.2107 114.522 13.2107H113.136C113.037 13.2107 112.953 13.1763 112.883 13.1073C112.813 13.0383 112.779 12.9546 112.779 12.8561V4.74345H108.427V12.8561C108.427 12.9546 108.393 13.0383 108.323 13.1073C108.254 13.1763 108.164 13.2107 108.055 13.2107H106.684Z" fill="#008AD1"/>
<path d="M117.569 13.2107C117.46 13.2107 117.37 13.1763 117.301 13.1073C117.241 13.0383 117.211 12.9497 117.211 12.8413V3.23619C117.211 3.12782 117.241 3.03916 117.301 2.9702C117.37 2.90124 117.46 2.86676 117.569 2.86676H118.955C119.054 2.86676 119.139 2.90124 119.208 2.9702C119.278 3.03916 119.312 3.12782 119.312 3.23619V9.98932L124.185 3.11797C124.275 2.9505 124.419 2.86676 124.617 2.86676H125.869C125.978 2.86676 126.063 2.90124 126.122 2.9702C126.192 3.03916 126.227 3.12782 126.227 3.23619V12.8561C126.227 12.9546 126.192 13.0383 126.122 13.1073C126.063 13.1763 125.978 13.2107 125.869 13.2107H124.498C124.389 13.2107 124.299 13.1763 124.23 13.1073C124.16 13.0383 124.126 12.9546 124.126 12.8561V6.25072L119.268 12.9595C119.168 13.127 119.024 13.2107 118.836 13.2107H117.569Z" fill="#008AD1"/>
<path d="M128.905 13.2107C128.806 13.2107 128.721 13.1763 128.652 13.1073C128.582 13.0383 128.547 12.9546 128.547 12.8561V3.23619C128.547 3.12782 128.577 3.03916 128.637 2.9702C128.706 2.90124 128.796 2.86676 128.905 2.86676H130.276C130.385 2.86676 130.475 2.90124 130.544 2.9702C130.614 3.03916 130.648 3.12782 130.648 3.23619V7.0339H135V3.23619C135 3.12782 135.034 3.03916 135.104 2.9702C135.173 2.90124 135.258 2.86676 135.357 2.86676H136.743C136.852 2.86676 136.937 2.90124 136.996 2.9702C137.066 3.03916 137.101 3.12782 137.101 3.23619V12.8561C137.101 12.9546 137.066 13.0383 136.996 13.1073C136.937 13.1763 136.852 13.2107 136.743 13.2107H135.357C135.258 13.2107 135.173 13.1763 135.104 13.1073C135.034 13.0383 135 12.9546 135 12.8561V8.91059H130.648V12.8561C130.648 12.9546 130.614 13.0383 130.544 13.1073C130.475 13.1763 130.385 13.2107 130.276 13.2107H128.905Z" fill="#008AD1"/>
<path d="M143.456 13.3585C142.085 13.3585 141.022 13.0137 140.267 12.3241C139.522 11.6247 139.124 10.6346 139.075 9.35391C139.065 9.08792 139.06 8.65446 139.06 8.05352C139.06 7.44273 139.065 6.99942 139.075 6.72358C139.124 5.4626 139.527 4.48239 140.282 3.78294C141.037 3.07364 142.095 2.71899 143.456 2.71899C144.34 2.71899 145.11 2.87168 145.765 3.17708C146.421 3.47262 146.928 3.88145 147.285 4.40358C147.653 4.9257 147.847 5.51186 147.866 6.16205V6.19161C147.866 6.27042 147.832 6.33938 147.762 6.39849C147.703 6.44774 147.633 6.47237 147.554 6.47237H146.108C145.989 6.47237 145.899 6.44774 145.84 6.39849C145.78 6.33938 145.731 6.24086 145.691 6.10294C145.542 5.49216 145.284 5.06362 144.916 4.81734C144.548 4.5612 144.062 4.43313 143.456 4.43313C142.035 4.43313 141.295 5.22124 141.235 6.79747C141.225 7.06346 141.22 7.47229 141.22 8.02397C141.22 8.57565 141.225 8.99433 141.235 9.28002C141.295 10.8562 142.035 11.6444 143.456 11.6444C144.052 11.6444 144.534 11.5212 144.901 11.2749C145.279 11.0188 145.542 10.5853 145.691 9.97454C145.731 9.83663 145.78 9.74304 145.84 9.69378C145.899 9.63467 145.989 9.60512 146.108 9.60512H147.554C147.643 9.60512 147.717 9.63467 147.777 9.69378C147.847 9.75289 147.876 9.82677 147.866 9.91544C147.847 10.5656 147.653 11.1518 147.285 11.6739C146.928 12.196 146.421 12.6098 145.765 12.9152C145.11 13.2107 144.34 13.3585 143.456 13.3585Z" fill="#008AD1"/>
<path d="M157.993 12.7083C158.023 12.7477 158.038 12.8019 158.038 12.8709C158.038 12.9595 158.003 13.0383 157.933 13.1073C157.874 13.1763 157.794 13.2107 157.695 13.2107H156.13C155.932 13.2107 155.783 13.127 155.683 12.9595L153.135 8.91059H151.734V12.8561C151.734 12.9546 151.7 13.0383 151.63 13.1073C151.561 13.1763 151.471 13.2107 151.362 13.2107H149.991C149.892 13.2107 149.807 13.1763 149.738 13.1073C149.668 13.0383 149.633 12.9546 149.633 12.8561V3.23619C149.633 3.12782 149.663 3.03916 149.723 2.9702C149.792 2.90124 149.882 2.86676 149.991 2.86676H151.362C151.471 2.86676 151.561 2.90124 151.63 2.9702C151.7 3.03916 151.734 3.12782 151.734 3.23619V7.0339L153.016 7.04868L155.415 3.13275C155.524 2.95542 155.703 2.86676 155.951 2.86676H157.471C157.571 2.86676 157.645 2.89631 157.695 2.95542C157.755 3.01453 157.784 3.08841 157.784 3.17708C157.784 3.22633 157.759 3.28544 157.71 3.3544L154.908 7.86142L157.993 12.7083Z" fill="#008AD1"/>
<path d="M160.003 13.2107C159.893 13.2107 159.804 13.1763 159.735 13.1073C159.675 13.0383 159.645 12.9497 159.645 12.8413V3.23619C159.645 3.12782 159.675 3.03916 159.735 2.9702C159.804 2.90124 159.893 2.86676 160.003 2.86676H161.389C161.488 2.86676 161.572 2.90124 161.642 2.9702C161.711 3.03916 161.746 3.12782 161.746 3.23619V9.98932L166.619 3.11797C166.708 2.9505 166.852 2.86676 167.051 2.86676H168.303C168.412 2.86676 168.496 2.90124 168.556 2.9702C168.626 3.03916 168.66 3.12782 168.66 3.23619V12.8561C168.66 12.9546 168.626 13.0383 168.556 13.1073C168.496 13.1763 168.412 13.2107 168.303 13.2107H166.932C166.823 13.2107 166.733 13.1763 166.664 13.1073C166.594 13.0383 166.559 12.9546 166.559 12.8561V6.25072L161.701 12.9595C161.602 13.127 161.458 13.2107 161.269 13.2107H160.003Z" fill="#008AD1"/>
<path d="M171.339 13.2107C171.23 13.2107 171.14 13.1763 171.071 13.1073C171.011 13.0383 170.981 12.9497 170.981 12.8413V3.23619C170.981 3.12782 171.011 3.03916 171.071 2.9702C171.14 2.90124 171.23 2.86676 171.339 2.86676H172.725C172.824 2.86676 172.908 2.90124 172.978 2.9702C173.047 3.03916 173.082 3.12782 173.082 3.23619V9.98932L177.955 3.11797C178.044 2.9505 178.188 2.86676 178.387 2.86676H179.639C179.748 2.86676 179.833 2.90124 179.892 2.9702C179.962 3.03916 179.996 3.12782 179.996 3.23619V12.8561C179.996 12.9546 179.962 13.0383 179.892 13.1073C179.833 13.1763 179.748 13.2107 179.639 13.2107H178.268C178.159 13.2107 178.069 13.1763 178 13.1073C177.93 13.0383 177.895 12.9546 177.895 12.8561V6.25072L173.038 12.9595C172.938 13.127 172.794 13.2107 172.605 13.2107H171.339ZM175.496 2.27567C174.632 2.27567 174.001 2.09342 173.604 1.72892C173.206 1.35457 173.008 0.871849 173.008 0.280765C173.008 0.201954 173.033 0.13792 173.082 0.0886623C173.132 0.0295541 173.201 0 173.291 0H174.155C174.245 0 174.314 0.0295541 174.364 0.0886623C174.413 0.13792 174.438 0.201954 174.438 0.280765C174.438 0.842295 174.791 1.12306 175.496 1.12306C176.192 1.12306 176.539 0.842295 176.539 0.280765C176.539 0.201954 176.564 0.13792 176.614 0.0886623C176.664 0.0295541 176.733 0 176.822 0H177.687C177.776 0 177.846 0.0295541 177.895 0.0886623C177.945 0.13792 177.97 0.201954 177.97 0.280765C177.97 0.871849 177.771 1.35457 177.374 1.72892C176.986 2.09342 176.361 2.27567 175.496 2.27567Z" fill="#008AD1"/>
<path d="M82.6317 32.4908C82.5323 32.4908 82.4479 32.4563 82.3784 32.3874C82.3088 32.3283 82.2741 32.2445 82.2741 32.1362V31.0427C79.2938 31.0427 77.6944 29.7521 77.4758 27.1711L77.4609 26.6391L77.4758 26.1071C77.5454 24.8461 78.0024 23.8807 78.8468 23.2108C79.6912 22.5409 80.8336 22.206 82.2741 22.206V21.2898C82.2741 21.1814 82.3088 21.0977 82.3784 21.0386C82.4479 20.9696 82.5323 20.9351 82.6317 20.9351H84.0175C84.1268 20.9351 84.2112 20.9696 84.2708 21.0386C84.3404 21.0977 84.3751 21.1814 84.3751 21.2898V22.206C85.8156 22.206 86.958 22.5409 87.8024 23.2108C88.6469 23.8807 89.1038 24.8461 89.1734 26.1071C89.1833 26.2647 89.1883 26.4667 89.1883 26.713C89.1883 26.9002 89.1833 27.0528 89.1734 27.1711C88.9647 29.7521 87.3653 31.0427 84.3751 31.0427V32.1362C84.3751 32.2445 84.3404 32.3283 84.2708 32.3874C84.2112 32.4563 84.1268 32.4908 84.0175 32.4908H82.6317ZM82.289 23.9349C81.4644 23.9349 80.8336 24.1171 80.3965 24.4816C79.9594 24.8363 79.7061 25.3978 79.6365 26.1662L79.6216 26.6243L79.6365 27.0972C79.7259 28.5847 80.6101 29.3285 82.289 29.3285V23.9349ZM84.3602 29.3285C86.059 29.3285 86.9431 28.5847 87.0127 27.0972C87.0226 26.9987 87.0276 26.8164 87.0276 26.5504C87.0276 26.3633 87.0226 26.2352 87.0127 26.1662C86.9431 25.3978 86.6848 24.8363 86.2378 24.4816C85.8007 24.1171 85.1748 23.9349 84.3602 23.9349V29.3285Z" fill="#008AD1"/>
<path d="M91.4917 32.018C91.3824 32.018 91.293 31.9835 91.2235 31.9145C91.1638 31.8456 91.134 31.7569 91.134 31.6485V22.0434C91.134 21.935 91.1638 21.8464 91.2235 21.7774C91.293 21.7085 91.3824 21.674 91.4917 21.674H92.8775C92.9768 21.674 93.0613 21.7085 93.1308 21.7774C93.2004 21.8464 93.2351 21.935 93.2351 22.0434V28.7965L98.1079 21.9252C98.1973 21.7577 98.3413 21.674 98.54 21.674H99.7917C99.901 21.674 99.9854 21.7085 100.045 21.7774C100.115 21.8464 100.149 21.935 100.149 22.0434V31.6633C100.149 31.7618 100.115 31.8456 100.045 31.9145C99.9854 31.9835 99.901 32.018 99.7917 32.018H98.4208C98.3115 32.018 98.2221 31.9835 98.1526 31.9145C98.083 31.8456 98.0483 31.7618 98.0483 31.6633V25.0579L93.1904 31.7667C93.0911 31.9342 92.947 32.018 92.7583 32.018H91.4917Z" fill="#008AD1"/>
<path d="M109.369 32.018C109.27 32.018 109.186 31.9835 109.116 31.9145C109.047 31.8456 109.012 31.7618 109.012 31.6633V23.5507H105.793V25.383C105.793 27.0085 105.679 28.2941 105.45 29.2399C105.232 30.1757 104.854 30.8653 104.318 31.3087C103.781 31.7421 103.031 31.9736 102.068 32.0032C101.968 32.013 101.879 31.9835 101.8 31.9145C101.73 31.8357 101.695 31.747 101.695 31.6485V30.5107C101.695 30.4122 101.725 30.3334 101.785 30.2743C101.854 30.2151 101.939 30.1757 102.038 30.156C102.624 30.0674 103.056 29.6142 103.334 28.7965C103.622 27.969 103.767 26.7425 103.767 25.117V22.0286C103.767 21.9203 103.801 21.8365 103.871 21.7774C103.94 21.7085 104.025 21.674 104.124 21.674H110.74C110.85 21.674 110.939 21.7085 111.009 21.7774C111.078 21.8464 111.113 21.935 111.113 22.0434V31.6633C111.113 31.7618 111.078 31.8456 111.009 31.9145C110.939 31.9835 110.85 32.018 110.74 32.018H109.369Z" fill="#008AD1"/>
<path d="M113.785 32.018C113.676 32.018 113.587 31.9835 113.517 31.9145C113.458 31.8456 113.428 31.7569 113.428 31.6485V22.0434C113.428 21.935 113.458 21.8464 113.517 21.7774C113.587 21.7085 113.676 21.674 113.785 21.674H115.171C115.271 21.674 115.355 21.7085 115.425 21.7774C115.494 21.8464 115.529 21.935 115.529 22.0434V28.7965L120.402 21.9252C120.491 21.7577 120.635 21.674 120.834 21.674H122.085C122.195 21.674 122.279 21.7085 122.339 21.7774C122.408 21.8464 122.443 21.935 122.443 22.0434V31.6633C122.443 31.7618 122.408 31.8456 122.339 31.9145C122.279 31.9835 122.195 32.018 122.085 32.018H120.715C120.605 32.018 120.516 31.9835 120.446 31.9145C120.377 31.8456 120.342 31.7618 120.342 31.6633V25.0579L115.484 31.7667C115.385 31.9342 115.241 32.018 115.052 32.018H113.785Z" fill="#008AD1"/>
<path d="M124.123 32.018C124.034 32.018 123.959 31.9884 123.9 31.9293C123.84 31.8702 123.81 31.7963 123.81 31.7076L123.84 31.5746L127.416 22.0434C127.516 21.7971 127.694 21.674 127.953 21.674H129.592C129.85 21.674 130.029 21.7971 130.128 22.0434L133.705 31.5746L133.734 31.7076C133.734 31.7963 133.7 31.8702 133.63 31.9293C133.571 31.9884 133.501 32.018 133.422 32.018H132.095C131.887 32.018 131.743 31.9244 131.663 31.7372L130.978 29.9492H126.567L125.881 31.7372C125.802 31.9244 125.658 32.018 125.449 32.018H124.123ZM127.088 28.235H130.456L128.772 23.6837L127.088 28.235Z" fill="#008AD1"/>
<path d="M142.01 32.018C141.91 32.018 141.826 31.9835 141.756 31.9145C141.687 31.8456 141.652 31.7618 141.652 31.6633V23.5507H138.433V25.383C138.433 27.0085 138.319 28.2941 138.091 29.2399C137.872 30.1757 137.495 30.8653 136.958 31.3087C136.422 31.7421 135.672 31.9736 134.708 32.0032C134.609 32.013 134.519 31.9835 134.44 31.9145C134.37 31.8357 134.335 31.747 134.335 31.6485V30.5107C134.335 30.4122 134.365 30.3334 134.425 30.2743C134.494 30.2151 134.579 30.1757 134.678 30.156C135.264 30.0674 135.696 29.6142 135.975 28.7965C136.263 27.969 136.407 26.7425 136.407 25.117V22.0286C136.407 21.9203 136.442 21.8365 136.511 21.7774C136.581 21.7085 136.665 21.674 136.764 21.674H143.381C143.49 21.674 143.579 21.7085 143.649 21.7774C143.718 21.8464 143.753 21.935 143.753 22.0434V31.6633C143.753 31.7618 143.718 31.8456 143.649 31.9145C143.579 31.9835 143.49 32.018 143.381 32.018H142.01Z" fill="#008AD1"/>
</svg>
