<svg width="22" height="22" viewBox="0 0 22 22" fill="none" xmlns="http://www.w3.org/2000/svg">
<path d="M19.9386 18.9665L14.7466 13.7745C15.9943 12.2767 16.6165 10.3555 16.4837 8.41058C16.351 6.46569 15.4735 4.64685 14.0339 3.33244C12.5942 2.01803 10.7033 1.30924 8.75437 1.35352C6.80545 1.3978 4.94864 2.19175 3.57019 3.57019C2.19175 4.94864 1.3978 6.80545 1.35352 8.75437C1.30924 10.7033 2.01803 12.5942 3.33244 14.0339C4.64685 15.4735 6.46569 16.351 8.41058 16.4837C10.3555 16.6165 12.2767 15.9943 13.7745 14.7466L18.9665 19.9387L19.9386 18.9665ZM2.75115 8.93865C2.75115 7.71488 3.11404 6.51859 3.79393 5.50106C4.47382 4.48353 5.44018 3.69046 6.57079 3.22214C7.70141 2.75383 8.94551 2.63129 10.1458 2.87004C11.346 3.10879 12.4485 3.69809 13.3139 4.56342C14.1792 5.42876 14.7685 6.53127 15.0073 7.73153C15.246 8.93178 15.1235 10.1759 14.6552 11.3065C14.1868 12.4371 13.3938 13.4035 12.3762 14.0834C11.3587 14.7633 10.1624 15.1261 8.93865 15.1261C7.29818 15.1243 5.72542 14.4719 4.56543 13.3119C3.40545 12.1519 2.75297 10.5791 2.75115 8.93865Z" fill="white"/>
</svg>
