<svg width="24" height="24" viewBox="0 0 24 24" fill="none" xmlns="http://www.w3.org/2000/svg">
<path d="M22.4151 11.6901C20.1684 7.53677 16.2284 5.02344 11.8684 5.02344C7.50844 5.02344 3.56177 7.53677 1.3351 11.6901L1.14844 12.0034L1.32177 12.3234C3.56844 16.4768 7.50844 18.9901 11.8684 18.9901C16.2284 18.9901 20.1751 16.5101 22.4151 12.3234L22.5884 12.0034L22.4151 11.6901ZM11.8684 17.6234C8.1151 17.6234 4.66844 15.5301 2.66844 12.0034C4.66844 8.47677 8.1151 6.38344 11.8684 6.38344C15.6218 6.38344 19.0284 8.48344 21.0618 12.0034C19.0284 15.5301 15.6151 17.6234 11.8684 17.6234Z" fill="white"/>
<path d="M12.0634 7.44543C11.1595 7.45203 10.2778 7.72635 9.52968 8.23375C8.78157 8.74116 8.20061 9.45887 7.86017 10.2963C7.51973 11.1337 7.43509 12.0531 7.61692 12.9386C7.79876 13.8241 8.23892 14.6358 8.88182 15.2713C9.52472 15.9067 10.3415 16.3374 11.229 16.5089C12.1166 16.6804 13.035 16.5851 13.8684 16.2349C14.7017 15.8847 15.4126 15.2955 15.9113 14.5415C16.41 13.7875 16.674 12.9027 16.6701 11.9988C16.6674 11.3971 16.5461 10.8018 16.313 10.247C16.0799 9.69231 15.7397 9.18903 15.3117 8.76604C14.8838 8.34305 14.3766 8.00866 13.8192 7.78205C13.2617 7.55543 12.6651 7.44104 12.0634 7.44543ZM12.0634 15.2588C11.4249 15.2522 10.8026 15.0571 10.2746 14.698C9.74663 14.3389 9.33653 13.8318 9.09582 13.2403C8.85512 12.6489 8.79453 11.9995 8.92167 11.3738C9.04881 10.7481 9.35802 10.1738 9.81045 9.72324C10.2629 9.27266 10.8384 8.9658 11.4646 8.84121C12.0909 8.71662 12.74 8.77986 13.3304 9.02298C13.9209 9.2661 14.4263 9.67826 14.7832 10.2077C15.1402 10.7371 15.3328 11.3602 15.3367 11.9988C15.3385 12.4285 15.255 12.8543 15.0909 13.2515C14.9269 13.6487 14.6856 14.0094 14.3811 14.3126C14.0767 14.6159 13.715 14.8557 13.3171 15.0181C12.9193 15.1805 12.4931 15.2623 12.0634 15.2588Z" fill="white"/>
</svg>
