<svg width="24" height="21" viewBox="0 0 24 21" fill="none" xmlns="http://www.w3.org/2000/svg">
<path d="M0.0703125 4.3125C0.0703125 3.51562 0.523437 3.08594 1.42969 3.02344L4.92188 3.04688C5.15625 3.04688 5.3125 3.16406 5.39062 3.39844C5.75 4.57031 6.15234 5.58203 6.59766 6.43359C7.04297 7.28516 7.625 8.26562 8.34375 9.375C8.40625 9.51562 8.50781 9.58594 8.64844 9.58594C8.75781 9.58594 8.84375 9.53125 8.90625 9.42188L8.97656 9.16406L9 5.10938C9 4.82812 8.93359 4.64062 8.80078 4.54688C8.66797 4.45312 8.42188 4.38281 8.0625 4.33594C7.78125 4.28906 7.64062 4.11719 7.64062 3.82031C7.64062 3.75781 7.64844 3.71094 7.66406 3.67969C7.99219 2.66406 8.92969 2.15625 10.4766 2.15625L11.7891 2.13281C12.3828 2.13281 12.875 2.28125 13.2656 2.57812C13.6562 2.875 13.8516 3.34375 13.8516 3.98438V9.30469C13.9609 9.38281 14.0625 9.42188 14.1562 9.42188C14.3906 9.42188 14.5938 9.28125 14.7656 9C16.4844 6.59375 17.4141 4.98438 17.5547 4.17188C17.5547 4.15625 17.5703 4.11719 17.6016 4.05469C17.7109 3.82031 17.8906 3.61719 18.1406 3.44531C18.3906 3.27344 18.6094 3.15625 18.7969 3.09375C18.8594 3.0625 18.9297 3.04688 19.0078 3.04688H22.6406L22.875 3.07031C23.1875 3.07031 23.4297 3.21875 23.6016 3.51562C23.6641 3.60938 23.707 3.71094 23.7305 3.82031C23.7539 3.92969 23.7695 4.03906 23.7773 4.14844C23.7852 4.25781 23.7891 4.32031 23.7891 4.33594V4.5C23.6797 5.14062 23.4023 5.82422 22.957 6.55078C22.5117 7.27734 21.9453 8.0625 21.2578 8.90625C20.5703 9.75 20.1406 10.3047 19.9688 10.5703C19.8281 10.7578 19.7578 10.9297 19.7578 11.0859C19.7578 11.2109 19.8203 11.3516 19.9453 11.5078L23.3672 15.8203C23.5547 16.0703 23.6484 16.3438 23.6484 16.6406C23.6484 17 23.5078 17.2969 23.2266 17.5312C22.9453 17.7656 22.6094 17.8984 22.2188 17.9297L21.8203 17.9531H18.2578C18.2422 17.9531 18.2109 17.957 18.1641 17.9648C18.1172 17.9727 18.0859 17.9766 18.0703 17.9766C17.7266 17.9766 17.4062 17.8281 17.1094 17.5312C17 17.4062 16.2656 16.4844 14.9062 14.7656C14.8281 14.6562 14.7188 14.5547 14.5781 14.4609C14.5156 14.7109 14.4336 15.0703 14.332 15.5391C14.2305 16.0078 14.1562 16.3438 14.1094 16.5469L14.0391 16.9453C13.8828 17.4922 13.5547 17.8203 13.0547 17.9297L12.7266 17.9531H10.4297C9.13281 17.9531 7.83984 17.3594 6.55078 16.1719C5.26172 14.9844 4.10156 13.4492 3.07031 11.5664C2.03906 9.68359 1.07812 7.49219 0.1875 4.99219C0.109375 4.78906 0.0703125 4.5625 0.0703125 4.3125ZM14.1562 10.3828C13.8281 10.3828 13.5312 10.293 13.2656 10.1133C13 9.93359 12.8672 9.6875 12.8672 9.375V3.98438C12.8672 3.67188 12.7891 3.44922 12.6328 3.31641C12.4766 3.18359 12.2031 3.11719 11.8125 3.11719L10.4766 3.16406C9.80469 3.16406 9.29688 3.28125 8.95312 3.51562C9.64062 3.84375 9.98438 4.375 9.98438 5.10938V9.23438C9.95312 9.625 9.79688 9.94922 9.51562 10.207C9.23438 10.4648 8.92188 10.5938 8.57812 10.5938C8.10938 10.5938 7.75 10.3672 7.5 9.91406C6.28125 8.07031 5.375 6.32031 4.78125 4.66406L4.57031 4.05469L1.45312 4.03125C1.25 4.03125 1.13672 4.04297 1.11328 4.06641C1.08984 4.08984 1.07812 4.15625 1.07812 4.26562C1.07812 4.40625 1.09375 4.55469 1.125 4.71094L1.61719 6.02344C2.92969 9.41406 4.35547 12.0859 5.89453 14.0391C7.43359 15.9922 8.94531 16.9688 10.4297 16.9688H12.7734C12.8672 16.9688 12.9375 16.9414 12.9844 16.8867C13.0312 16.832 13.0703 16.7266 13.1016 16.5703L13.1484 16.3359L13.5938 14.2734C13.7188 13.9922 13.8281 13.8047 13.9219 13.7109C14.0938 13.5391 14.2969 13.4531 14.5312 13.4531C14.9062 13.4531 15.2891 13.6797 15.6797 14.1328L17.6719 16.6641C17.7969 16.8672 17.9297 16.9688 18.0703 16.9688H21.9375C22.4062 16.9688 22.6406 16.8516 22.6406 16.6172C22.6406 16.5391 22.6172 16.4609 22.5703 16.3828L19.1719 12.1406C18.9062 11.8125 18.7734 11.4609 18.7734 11.0859C18.7734 10.7109 18.8984 10.3516 19.1484 10.0078C19.3516 9.69531 19.7461 9.17578 20.332 8.44922C20.918 7.72266 21.4297 7.04297 21.8672 6.41016C22.3047 5.77734 22.5938 5.20312 22.7344 4.6875L22.8047 4.38281C22.7891 4.35156 22.7812 4.30078 22.7812 4.23047C22.7812 4.16016 22.7734 4.10156 22.7578 4.05469H19.0781C18.8438 4.14844 18.6562 4.28906 18.5156 4.47656L18.375 4.92188C17.9844 6 16.9609 7.66406 15.3047 9.91406C14.9766 10.2266 14.5938 10.3828 14.1562 10.3828Z" fill="white"/>
</svg>
